<svg width="144" height="144" xmlns="http://www.w3.org/2000/svg"><path d="M 71.050781 23.679688 C 44.990781 23.679688 23.779297 44.899219 23.779297 70.949219 C 23.779297 96.999219 45.000781 118.2207 71.050781 118.2207 C 97.100781 118.2207 118.32031 96.999219 118.32031 70.949219 C 118.32031 44.899219 97.100781 23.679688 71.050781 23.679688 z M 70.980469 27.880859 C 72.66123 27.924389 74.00056 29.303489 74 30.990234 C 74 35.136899 67.779297 35.136899 67.779297 30.990234 C 67.778563 29.236858 69.227828 27.830118 70.980469 27.880859 z M 63.949219 33 L 68.740234 38.019531 C 69.820234 39.149531 71.610234 39.199375 72.740234 38.109375 L 78.099609 33 C 89.149831 35.069744 98.732213 41.893769 104.30078 51.660156 L 100.63086 59.939453 C 100.00086 61.369453 100.65031 63.049453 102.07031 63.689453 L 109.13086 66.820312 C 109.34986 69.027147 109.37671 71.249466 109.21094 73.460938 L 105.2793 73.460938 C 104.8893 73.460938 104.73047 73.719609 104.73047 74.099609 L 104.73047 75.900391 C 104.73047 80.140391 102.34023 81.070781 100.24023 81.300781 C 98.240234 81.530781 96.03 80.460234 95.75 79.240234 C 94.57 72.610234 92.609766 71.2 89.509766 68.75 C 93.359766 66.31 97.359375 62.700859 97.359375 57.880859 C 97.359375 52.670859 93.789375 49.389297 91.359375 47.779297 C 87.939375 45.529297 84.160625 45.080078 83.140625 45.080078 L 42.539062 45.080078 C 48.153073 38.808484 55.678289 34.5626 63.949219 33 z M 62.507812 51.298828 C 64.601744 51.298829 66.454358 52.213491 67.132812 55.283203 L 82.998047 55.275391 L 84.34375 56.875 L 84.857422 56.988281 L 84.857422 57.75 L 82.650391 60.337891 L 81.542969 60.337891 L 80.662109 59.304688 L 79.648438 59.304688 L 78.884766 60.199219 L 77.707031 60.199219 L 77.066406 58.896484 L 75.673828 58.896484 L 75.433594 59.380859 L 73.988281 59.380859 L 73.386719 58.675781 L 72.492188 58.675781 L 71.134766 60.601562 L 67.167969 60.601562 C 66.517003 63.754913 64.602839 64.404297 62.472656 64.404297 C 59.795573 64.404298 57.726562 62.441363 57.726562 58.023438 C 57.726563 53.605512 59.830728 51.298828 62.507812 51.298828 z M 60.857422 55.021484 C 59.99811 55.021484 59.162109 56.455287 59.162109 58.023438 C 59.162109 59.591587 59.86139 60.863281 60.720703 60.863281 C 61.580013 60.863281 62.275391 59.591586 62.275391 58.023438 C 62.275391 56.455287 61.716732 55.021485 60.857422 55.021484 z M 33.900391 56.019531 C 35.58275 56.068241 36.920627 57.447795 36.919922 59.130859 C 36.919922 63.277524 30.699219 63.277524 30.699219 59.130859 C 30.698485 57.377483 32.14775 55.96879 33.900391 56.019531 z M 108.05078 56.160156 C 109.73314 56.208866 111.07101 57.586467 111.07031 59.269531 C 111.07031 63.416196 104.84961 63.416196 104.84961 59.269531 C 104.84888 57.516155 106.29814 56.109415 108.05078 56.160156 z M 39.759766 56.660156 L 45.179688 56.660156 L 45.179688 81.099609 L 34.240234 81.099609 C 32.889114 76.355049 32.46782 71.394636 33 66.490234 L 39.699219 63.509766 C 41.129219 62.869766 41.780625 61.199531 41.140625 59.769531 L 39.759766 56.660156 z M 62.380859 74.480469 L 72.269531 74.480469 C 73.169531 74.480469 77.099609 74.739766 78.349609 79.759766 C 78.739609 81.299766 79.609219 86.319688 80.199219 87.929688 C 80.789219 89.729687 83.180469 93.330078 85.730469 93.330078 L 101.86914 93.330078 C 100.78746 94.778643 99.605438 96.14835 98.330078 97.429688 L 91.759766 96.019531 C 90.229766 95.689531 88.720625 96.669219 88.390625 98.199219 L 86.830078 105.48047 C 76.678917 110.07891 65.027403 110.02375 54.919922 105.33008 L 53.359375 98.050781 C 53.029375 96.520781 51.53 95.539141 50 95.869141 L 43.570312 97.25 C 42.377099 96.019166 41.267621 94.709628 40.25 93.330078 L 71.519531 93.330078 C 71.869531 93.330078 72.109375 93.269453 72.109375 92.939453 L 72.109375 81.880859 C 72.109375 81.560859 71.869531 81.490234 71.519531 81.490234 L 62.369141 81.490234 L 62.380859 74.480469 z M 47.949219 99.810547 C 49.631578 99.859257 50.971408 101.23686 50.970703 102.91992 C 50.970703 107.06658 44.75 107.06658 44.75 102.91992 C 44.749266 101.16654 46.196578 99.759806 47.949219 99.810547 z M 94 99.949219 C 95.682359 99.997929 97.020236 101.37749 97.019531 103.06055 C 97.019531 107.20721 90.800781 107.20721 90.800781 103.06055 C 90.800047 101.30717 92.247359 99.898478 94 99.949219 z "/><path d="m115.68 70.95a44.63 44.63 0 0 1 -44.63 44.63 44.63 44.63 0 0 1 -44.63-44.63 44.63 44.63 0 0 1 44.63-44.63 44.63 44.63 0 0 1 44.63 44.63zm-.84-4.31 6.96 4.31-6.96 4.31 5.98 5.59-7.66 2.87 4.78 6.65-8.09 1.32 3.4 7.46-8.19-.29 1.88 7.98-7.98-1.88.29 8.19-7.46-3.4-1.32 8.09-6.65-4.78-2.87 7.66-5.59-5.98-4.31 6.96-4.31-6.96-5.59 5.98-2.87-7.66-6.65 4.78-1.32-8.09-7.46 3.4.29-8.19-7.98 1.88 1.88-7.98-8.19.29 3.4-7.46-8.09-1.32 4.78-6.65-7.66-2.87 5.98-5.59-6.96-4.31 6.96-4.31-5.98-5.59 7.66-2.87-4.78-6.65 8.09-1.32-3.4-7.46 8.19.29-1.88-7.98 7.98 1.88-.29-8.19 7.46 3.4 1.32-8.09 6.65 4.78 2.87-7.66 5.59 5.98 4.31-6.96 4.31 6.96 5.59-5.98 2.87 7.66 6.65-4.78 1.32 8.09 7.46-3.4-.29 8.19 7.98-1.88-1.88 7.98 8.19-.29-3.4 7.46 8.09 1.32-4.78 6.65 7.66 2.87z" fill-rule="evenodd" stroke="#000" stroke-linecap="round" stroke-linejoin="round" stroke-width="3"/></svg>
