<?xml version="1.0" encoding="utf-8"?>
<!-- Generator: Adobe Illustrator 24.0.0, SVG Export Plug-In . SVG Version: 6.00 Build 0)  -->
<svg version="1.1" id="Layer_1" xmlns="http://www.w3.org/2000/svg" xmlns:xlink="http://www.w3.org/1999/xlink" x="0px" y="0px"
	 viewBox="0 0 575 722" style="enable-background:new 0 0 575 722;" xml:space="preserve">
<style type="text/css">
	.st0{fill:#FFCC00;}
	.st1{fill:none;stroke:#000000;stroke-miterlimit:10;}
	.st2{fill:#00FFFF;stroke:#000000;stroke-miterlimit:10;}
	.st3{fill:#00FF00;stroke:#000000;stroke-miterlimit:10;}
	.st4{font-family:'Futura-Medium';}
	.st5{font-size:28px;}
</style>
<g>
	<g>
		<rect x="53.5" y="108.5" class="st0" width="35" height="35"/>
		<path d="M88,109v34H54v-34H88 M89,108H53v36h36V108L89,108z"/>
	</g>
	<g>
		<g>
			<line class="st1" x1="53.5" y1="126" x2="88.5" y2="126"/>
		</g>
		<line class="st1" x1="71" y1="108.5" x2="71" y2="143.5"/>
	</g>
</g>
<g>
	<g>
		<line class="st1" x1="71" y1="36" x2="71" y2="102"/>
		<g>
			<polygon points="67.3,99.2 71,100.8 74.7,99.2 71,108 			"/>
		</g>
	</g>
</g>
<g>
	<g>
		<path d="M90.8,51.1c-1.2,1.6-2.7,2.4-3.3,2.4s-1-0.6-0.5-2.7l0.3-1.7c-0.9,1.5-2.2,2.7-2.9,3.2c-0.8,0.6-1.7,1.2-2.5,1.2
			c-0.8,0-1.5-1-1.5-3c0-2.3,1-4.8,2.7-6.2c1.2-1.2,3-1.9,4.6-1.9c1.2,0,2.3,0.4,2.8,0.4c-0.4,1.5-1.3,5.2-1.7,7.9
			c-0.1,0.7-0.1,0.9,0.1,0.9c0.3,0,0.8-0.3,1.7-1.2L90.8,51.1z M86.5,49.1c0.5-0.7,1.2-1.9,1.4-2.9c0.2-0.9,0.5-1.8,0.5-2.4
			c-0.3-0.2-1.1-0.4-1.8-0.4c-2.8,0-4.2,3.6-4.2,6.8c0,1,0.3,1.6,0.7,1.6C83.9,51.8,85,51.1,86.5,49.1z"/>
	</g>
</g>
<g>
	<g>
		<line class="st1" x1="215" y1="36" x2="215.5" y2="281.5"/>
		<g>
			<polygon points="211.8,278.7 215.5,280.3 219.2,278.7 215.5,287.5 			"/>
		</g>
	</g>
</g>
<g>
	<circle class="st2" cx="215.5" cy="306" r="18"/>
	<line class="st1" x1="215.5" y1="288" x2="215.5" y2="324"/>
	<line class="st1" x1="197.5" y1="306" x2="233.5" y2="306"/>
</g>
<g>
	<g>
		<rect x="341.5" y="252.5" class="st0" width="35" height="35"/>
		<path d="M376,253v34h-34v-34H376 M377,252h-36v36h36V252L377,252z"/>
	</g>
	<g>
		<g>
			<line class="st1" x1="341.5" y1="270" x2="376.5" y2="270"/>
		</g>
		<line class="st1" x1="359" y1="252.5" x2="359" y2="287.5"/>
	</g>
</g>
<g>
	<g>
		<line class="st1" x1="359" y1="35.5" x2="359.5" y2="246.5"/>
		<g>
			<polygon points="355.8,243.7 359.5,245.3 363.2,243.7 359.5,252.5 			"/>
		</g>
	</g>
</g>
<g>
	<g>
		<path d="M225.9,36.4c1.2-0.1,2.2-0.4,2.9-0.6c0.4-0.1,0.6-0.2,0.7-0.2c0.2,0,0.2,0.2,0.1,0.7c-0.8,3.2-1.5,6.3-2.1,9.2
			c1.8-2.3,3.8-3.5,5.2-3.5c1.4,0,1.7,1.6,1.7,2.6c0,2.9-1.7,5.7-3.8,7.2c-1.5,1-2.7,1.3-3.6,1.3c-0.6,0-1.2-0.2-1.6-0.6
			c-0.5-0.5-0.9-1.5-0.4-3.9c0.7-3.3,1.5-6.8,2.2-10.5c0.2-1,0-1-0.7-1.1c-0.3,0-0.7,0-0.9,0L225.9,36.4z M232.5,45
			c0-0.9-0.2-1.6-1-1.6c-0.8,0-2,0.7-3.5,2.6c-0.6,0.8-1,1.7-1.2,2.8c-0.4,2.3,0.3,3.1,1.4,3.1C230.8,52.1,232.5,47.6,232.5,45z"/>
	</g>
</g>
<g>
	<g>
		<path d="M375.1,50.5c-1.5,1.7-3.2,2.6-4.8,2.6c-1.6,0-2.7-1.3-2.7-3.6c0-2,0.8-4.3,2.4-5.8c1.1-1.1,2.7-1.8,3.8-1.8
			c1.1,0,1.8,0.6,1.9,1.1c0,0.5-0.3,1.1-0.8,1.2c-0.2,0.1-0.4,0.1-0.6-0.1c-0.6-0.7-1.1-1-1.8-1c-1.8,0-2.9,3-2.9,5.9
			c0,1.8,0.7,2.6,1.8,2.6c1.3,0,2.7-1.1,3.4-1.8L375.1,50.5z"/>
	</g>
</g>
<g>
	<circle class="st2" cx="502.9" cy="180.3" r="18"/>
	<line class="st1" x1="502.9" y1="162.3" x2="502.9" y2="198.3"/>
	<line class="st1" x1="484.9" y1="180.3" x2="520.9" y2="180.3"/>
</g>
<g>
	<g>
		<line class="st1" x1="71" y1="144" x2="71.5" y2="372.5"/>
		<g>
			<polygon points="67.8,369.7 71.5,371.3 75.2,369.7 71.5,378.5 			"/>
		</g>
	</g>
</g>
<g>
	<g>
		<rect x="53.5" y="378.5" class="st0" width="35" height="35"/>
		<path d="M88,379v34H54v-34H88 M89,378H53v36h36V378L89,378z"/>
	</g>
	<g>
		<g>
			<line class="st1" x1="53.5" y1="396" x2="88.5" y2="396"/>
		</g>
		<line class="st1" x1="71" y1="378.5" x2="71" y2="413.5"/>
	</g>
</g>
<g>
	<g>
		<line class="st1" x1="71.1" y1="180.5" x2="478.5" y2="180.5"/>
		<g>
			<path d="M71.3,184.3c-2.1,0-3.8-1.7-3.8-3.8s1.7-3.8,3.8-3.8c2.1,0,3.8,1.7,3.8,3.8S73.3,184.3,71.3,184.3z"/>
		</g>
		<g>
			<polygon points="475.7,184.2 477.3,180.5 475.7,176.8 484.5,180.5 			"/>
		</g>
	</g>
</g>
<g>
	<g>
		<line class="st1" x1="215.4" y1="125.5" x2="94" y2="125.5"/>
		<g>
			<path d="M215.2,121.7c2.1,0,3.8,1.7,3.8,3.8s-1.7,3.8-3.8,3.8c-2.1,0-3.8-1.7-3.8-3.8S213.2,121.7,215.2,121.7z"/>
		</g>
		<g>
			<polygon points="96.8,121.8 95.2,125.5 96.8,129.2 88,125.5 			"/>
		</g>
	</g>
</g>
<g>
	<g>
		<line class="st1" x1="502.5" y1="36" x2="502.5" y2="156.5"/>
		<g>
			<polygon points="498.8,153.7 502.5,155.3 506.2,153.7 502.5,162.5 			"/>
		</g>
	</g>
</g>
<g>
	<g>
		<path d="M524.6,50.8c-1.2,1.5-2.7,2.4-3.4,2.4c-0.7,0-1-0.6-0.5-2.9L521,49c-1.4,2-3.6,4.2-5.4,4.2c-0.9,0-1.8-0.8-1.8-3.1
			c0-2.1,1-4.8,2.8-6.3c1-0.9,2.9-1.7,4-1.7c0.6,0,1.3,0.1,1.8,0.3l0.8-4.1c0.2-1,0-1.1-0.9-1.1c-0.2,0-0.7,0-0.9,0l0.1-0.6
			c1.1-0.1,2.3-0.4,3-0.6c0.4-0.1,0.6-0.2,0.7-0.2c0.2,0,0.2,0.2,0.1,0.7c-1.1,4.7-2.2,9.7-3,14.2c-0.1,0.6,0,0.9,0.1,0.9
			c0.3,0,0.9-0.4,1.8-1.3L524.6,50.8z M520.5,48.5c0.5-0.7,0.9-1.4,1.1-2.5l0.5-2.1c-0.3-0.4-1.2-0.7-2.3-0.7c-2.8,0-3.9,4-3.9,6.4
			c0,1.3,0.4,2,1,2C517.9,51.6,519.3,50.3,520.5,48.5z"/>
	</g>
</g>
<g>
	<g>
		<line class="st1" x1="215.5" y1="324" x2="215.5" y2="336"/>
		<g>
			<polygon points="211.8,333.2 215.5,334.8 219.2,333.2 215.5,342 			"/>
		</g>
	</g>
</g>
<g>
	<rect x="179.5" y="342.5" class="st3" width="72" height="35.5"/>
	<text transform="matrix(1 0 0 1 187.3691 364.4375)" class="st4 st5">&lt;&lt;&lt;</text>
	<g>
		<g>
			<path d="M233.8,373.3v-0.5c1.8-0.1,1.9-0.2,1.9-1.4v-6.1c0-0.8-0.1-0.9-0.8-0.9l-0.7-0.1v-0.4c1.1-0.2,2.2-0.4,3-0.8v8.3
				c0,1.2,0.1,1.3,1.9,1.4v0.5H233.8z"/>
			<path d="M247.5,371.1c-0.2,0.7-0.5,1.6-0.7,2.2h-6.1v-0.4c0.9-0.9,1.8-1.8,2.6-2.7c1-1.2,1.9-2.5,1.9-3.8c0-1.3-0.7-2.1-1.8-2.1
				c-1.1,0-1.8,0.8-2.2,1.5l-0.4-0.3l0.9-1.3c0.5-0.6,1.3-1,2.2-1c1.5,0,2.8,1,2.8,2.8c0,1.3-0.5,2.3-2,3.8
				c-0.7,0.7-1.7,1.6-2.3,2.3c0.1,0,2.9,0,3,0c0.9,0,1.1-0.1,1.7-1.1L247.5,371.1z"/>
		</g>
	</g>
</g>
<g>
	<rect x="466.5" y="215.6" class="st3" width="72" height="35.5"/>
	<text transform="matrix(1 0 0 1 474.4142 237.5423)" class="st4 st5">&lt;&lt;&lt;</text>
	<g>
		<g>
			<path d="M520.9,246.4v-0.5c1.8-0.1,1.9-0.2,1.9-1.4v-6.1c0-0.8-0.1-0.9-0.8-0.9l-0.7-0.1V237c1.1-0.2,2.2-0.4,3-0.8v8.3
				c0,1.2,0.1,1.3,1.9,1.4v0.5H520.9z"/>
			<path d="M530.7,240.3c0.3-0.2,0.7-0.3,1-0.3c1.7,0,2.9,1.3,2.9,3c0,1.9-1.4,3.6-3.4,3.6c-1.9,0-3.4-1.5-3.4-4
				c0-3.3,2.5-5.3,4.4-6c0.4-0.1,1.2-0.3,1.9-0.4l0.1,0.5c-0.5,0.1-1.2,0.3-1.7,0.6c-0.9,0.4-2.4,1.5-2.9,3.6L530.7,240.3z M531,241
				c-0.6,0-1.1,0.2-1.5,0.4c-0.1,0.3-0.1,0.7-0.1,1.1c0,2,0.7,3.4,2,3.4c1.2,0,1.6-1.3,1.6-2.4C533,242.3,532.4,241,531,241z"/>
		</g>
	</g>
</g>
<g>
	<g>
		<line class="st1" x1="502.5" y1="198.5" x2="502.5" y2="209.5"/>
		<g>
			<polygon points="498.8,206.7 502.5,208.3 506.2,206.7 502.5,215.5 			"/>
		</g>
	</g>
</g>
<g>
	<g>
		<line class="st1" x1="502.5" y1="251" x2="502.5" y2="425.5"/>
		<g>
			<polygon points="498.8,422.7 502.5,424.3 506.2,422.7 502.5,431.5 			"/>
		</g>
	</g>
</g>
<g>
	<g>
		<line class="st1" x1="502.9" y1="269.5" x2="382.5" y2="269.5"/>
		<g>
			<path d="M502.7,265.7c2.1,0,3.8,1.7,3.8,3.8s-1.7,3.8-3.8,3.8c-2.1,0-3.8-1.7-3.8-3.8S500.7,265.7,502.7,265.7z"/>
		</g>
		<g>
			<polygon points="385.3,265.8 383.7,269.5 385.3,273.2 376.5,269.5 			"/>
		</g>
	</g>
</g>
<g>
	<g>
		<line class="st1" x1="358.8" y1="287" x2="358.8" y2="516.5"/>
		<g>
			<polygon points="355,513.7 358.8,515.3 362.5,513.7 358.8,522.5 			"/>
		</g>
	</g>
</g>
<g>
	<g>
		<line class="st1" x1="359.4" y1="305.5" x2="240" y2="305.5"/>
		<g>
			<path d="M359.2,301.7c2.1,0,3.8,1.7,3.8,3.8s-1.7,3.8-3.8,3.8c-2.1,0-3.8-1.7-3.8-3.8S357.2,301.7,359.2,301.7z"/>
		</g>
		<g>
			<polygon points="242.8,301.8 241.2,305.5 242.8,309.2 234,305.5 			"/>
		</g>
	</g>
</g>
<g>
	<g>
		<line class="st1" x1="215.3" y1="378.9" x2="215.3" y2="551.5"/>
		<g>
			<polygon points="211.6,548.7 215.3,550.3 219,548.7 215.3,557.5 			"/>
		</g>
	</g>
</g>
<g>
	<g>
		<line class="st1" x1="215.9" y1="395.5" x2="94.5" y2="395.5"/>
		<g>
			<path d="M215.7,391.7c2.1,0,3.8,1.7,3.8,3.8s-1.7,3.8-3.8,3.8c-2.1,0-3.8-1.7-3.8-3.8S213.7,391.7,215.7,391.7z"/>
		</g>
		<g>
			<polygon points="97.3,391.8 95.7,395.5 97.3,399.2 88.5,395.5 			"/>
		</g>
	</g>
</g>
<g>
	<g>
		<line class="st1" x1="70.9" y1="414.4" x2="71.5" y2="678.5"/>
		<g>
			<polygon points="67.8,675.7 71.5,677.3 75.2,675.7 71.5,684.5 			"/>
		</g>
	</g>
</g>
<g>
	<g>
		<line class="st1" x1="71.1" y1="450.5" x2="479.5" y2="450.5"/>
		<g>
			<path d="M71.3,454.3c-2.1,0-3.8-1.7-3.8-3.8s1.7-3.8,3.8-3.8c2.1,0,3.8,1.7,3.8,3.8S73.3,454.3,71.3,454.3z"/>
		</g>
		<g>
			<polygon points="476.7,454.2 478.3,450.5 476.7,446.8 485.5,450.5 			"/>
		</g>
	</g>
</g>
<g>
	<circle class="st2" cx="503" cy="450" r="18"/>
	<line class="st1" x1="503" y1="432" x2="503" y2="468"/>
	<line class="st1" x1="485" y1="450" x2="521" y2="450"/>
</g>
<g>
	<rect x="466.5" y="486.6" class="st3" width="72" height="35.5"/>
	<text transform="matrix(1 0 0 1 474.4142 508.5118)" class="st4 st5">&lt;&lt;&lt;</text>
	<g>
		<g>
			<path d="M527.2,507.2c1.6,0,2.7,1.1,2.7,2.4c0,0.5-0.1,0.9-0.5,1.3c-0.2,0.2-0.6,0.5-1.3,1c1.1,0.6,2.2,1.4,2.2,2.8
				c0,1.9-1.8,2.9-3.3,2.9c-1.8,0-3.2-1-3.2-2.7c0-0.8,0.4-1.2,0.7-1.6c0.3-0.2,0.9-0.6,1.4-1c-1-0.6-1.8-1.4-1.8-2.5
				C524.2,508.4,525.4,507.2,527.2,507.2z M527.2,517c1,0,1.7-0.7,1.7-1.8c0-1.3-1-1.9-2.4-2.5c-0.8,0.5-1.3,1.2-1.3,2.1
				C525.2,516.2,526.2,517,527.2,517z M527,507.7c-0.9,0-1.4,0.7-1.4,1.6c0,1.1,0.8,1.6,2,2.2c0.6-0.5,1-1,1-1.9
				C528.6,508.3,527.8,507.7,527,507.7z"/>
		</g>
	</g>
</g>
<g>
	<g>
		<line class="st1" x1="503" y1="468.5" x2="503" y2="479.5"/>
		<g>
			<polygon points="499.3,476.7 503,478.3 506.7,476.7 503,485.5 			"/>
		</g>
	</g>
</g>
<g>
	<g>
		<rect x="341" y="522.5" class="st0" width="35" height="35"/>
		<path d="M375.5,523v34h-34v-34H375.5 M376.5,522h-36v36h36V522L376.5,522z"/>
	</g>
	<g>
		<g>
			<line class="st1" x1="341" y1="540" x2="376" y2="540"/>
		</g>
		<line class="st1" x1="358.5" y1="522.5" x2="358.5" y2="557.5"/>
	</g>
</g>
<g>
	<g>
		<line class="st1" x1="503.4" y1="540" x2="381.5" y2="540"/>
		<g>
			<path d="M503.2,536.2c2.1,0,3.8,1.7,3.8,3.8s-1.7,3.8-3.8,3.8c-2.1,0-3.8-1.7-3.8-3.8S501.2,536.2,503.2,536.2z"/>
		</g>
		<g>
			<polygon points="384.3,536.3 382.7,540 384.3,543.7 375.5,540 			"/>
		</g>
	</g>
</g>
<g>
	<g>
		<line class="st1" x1="358.2" y1="558" x2="358.7" y2="679"/>
		<g>
			<polygon points="355,676.2 358.7,677.8 362.4,676.2 358.8,685 			"/>
		</g>
	</g>
</g>
<g>
	<g>
		<line class="st1" x1="503" y1="522" x2="503" y2="679"/>
		<g>
			<polygon points="499.3,676.2 503,677.8 506.7,676.2 503,685 			"/>
		</g>
	</g>
</g>
<g>
	<circle class="st2" cx="215" cy="576" r="18"/>
	<line class="st1" x1="215" y1="558" x2="215" y2="594"/>
	<line class="st1" x1="197" y1="576" x2="233" y2="576"/>
</g>
<g>
	<g>
		<line class="st1" x1="358.4" y1="576.5" x2="238" y2="576.5"/>
		<g>
			<path d="M358.2,572.7c2.1,0,3.8,1.7,3.8,3.8s-1.7,3.8-3.8,3.8c-2.1,0-3.8-1.7-3.8-3.8S356.2,572.7,358.2,572.7z"/>
		</g>
		<g>
			<polygon points="240.8,572.8 239.2,576.5 240.8,580.2 232,576.5 			"/>
		</g>
	</g>
</g>
<g>
	<rect x="180" y="612.1" class="st3" width="72" height="35.5"/>
	<text transform="matrix(1 0 0 1 187.8691 634.0054)" class="st4 st5">&lt;&lt;&lt;</text>
	<g>
		<g>
			<path d="M244,633.1c-1.5,3.2-3,6.5-4.6,9.8l-1.2,0.1l-0.1-0.2c1.7-2.7,3.4-5.9,4.7-8.7h-3.4c-1.1,0-1.1,0.1-1.6,1.2h-0.5
				c0.2-1,0.2-1.8,0.3-2.5h6.3L244,633.1z"/>
		</g>
	</g>
</g>
<g>
	<g>
		<line class="st1" x1="215" y1="593.5" x2="215" y2="606.5"/>
		<g>
			<polygon points="211.3,603.7 215,605.3 218.7,603.7 215,612.5 			"/>
		</g>
	</g>
</g>
<g>
	<g>
		<line class="st1" x1="215" y1="647.5" x2="215" y2="678.5"/>
		<g>
			<polygon points="211.3,675.7 215,677.3 218.7,675.7 215,684.5 			"/>
		</g>
	</g>
</g>
</svg>
