<svg xmlns="http://www.w3.org/2000/svg" viewBox="0 0 486.05 650"><defs><style>.a{fill:#fc0;}.b{fill:none;}.b,.c,.d{stroke:#000;stroke-miterlimit:10;}.c{fill:aqua;}.d{fill:lime;}</style></defs><title>chacha20</title><rect class="a" x="0.5" y="73" width="35" height="35"/><path d="M88,109v34H54V109H88m1-1H53v36H89V108Z" transform="translate(-53 -35.5)"/><line class="b" x1="0.5" y1="90.5" x2="35.5" y2="90.5"/><line class="b" x1="18" y1="73" x2="18" y2="108"/><line class="b" x1="18" y1="0.5" x2="18" y2="66.53"/><polygon points="14.3 63.72 18 65.3 21.7 63.72 18 72.5 14.3 63.72"/><path d="M90.81,51.05a5.65,5.65,0,0,1-3.33,2.45c-.67,0-1-.55-.53-2.74l.34-1.65a13.53,13.53,0,0,1-2.88,3.24,4.42,4.42,0,0,1-2.48,1.15c-.84,0-1.53-1-1.53-3a8.87,8.87,0,0,1,2.66-6.24,7.07,7.07,0,0,1,4.59-1.89,15.8,15.8,0,0,1,2.78.41C90,44.31,89.16,48,88.7,50.72c-.12.67-.07.93.12.93s.79-.31,1.66-1.2Zm-4.34-2a8.4,8.4,0,0,0,1.39-2.88,21,21,0,0,0,.53-2.35,4.79,4.79,0,0,0-1.82-.39c-2.84,0-4.16,3.65-4.16,6.77,0,1,.27,1.59.75,1.59C83.9,51.8,85,51.05,86.47,49.06Z" transform="translate(-53 -35.5)"/><line class="b" x1="162" y1="0.5" x2="162.49" y2="246.03"/><polygon points="158.78 243.23 162.49 244.8 166.19 243.22 162.5 252 158.78 243.23"/><circle class="c" cx="162.5" cy="270.5" r="18"/><line class="b" x1="162.5" y1="252.5" x2="162.5" y2="288.5"/><line class="b" x1="144.5" y1="270.5" x2="180.5" y2="270.5"/><rect class="a" x="288.5" y="217" width="35" height="35"/><path d="M376,253v34H342V253h34m1-1H341v36h36V252Z" transform="translate(-53 -35.5)"/><line class="b" x1="288.5" y1="234.5" x2="323.5" y2="234.5"/><line class="b" x1="306" y1="217" x2="306" y2="252"/><line class="b" x1="306" x2="306.49" y2="211.03"/><polygon points="302.78 208.23 306.48 209.8 310.18 208.21 306.5 217 302.78 208.23"/><path d="M225.88,36.41a15.81,15.81,0,0,0,2.93-.6,2.22,2.22,0,0,1,.72-.2c.22,0,.24.24.12.75-.81,3.24-1.46,6.26-2.11,9.19,1.78-2.28,3.82-3.5,5.23-3.5s1.73,1.58,1.73,2.64a9,9,0,0,1-3.77,7.15,6.72,6.72,0,0,1-3.57,1.32,2.06,2.06,0,0,1-1.59-.65c-.5-.53-.89-1.46-.41-3.86.68-3.34,1.47-6.82,2.21-10.47.19-1,0-1-.69-1.08-.27,0-.7-.05-.94-.05Zm6.63,8.64c0-.87-.24-1.59-1-1.59s-2,.7-3.48,2.62a5.73,5.73,0,0,0-1.18,2.83c-.38,2.33.34,3.14,1.39,3.14C230.8,52.05,232.51,47.61,232.51,45.05Z" transform="translate(-53 -35.5)"/><path d="M375.1,50.52a6.72,6.72,0,0,1-4.85,2.64c-1.61,0-2.71-1.27-2.71-3.55A8,8,0,0,1,370,43.85a6.34,6.34,0,0,1,3.81-1.8c1.06,0,1.85.55,1.88,1.1a1.4,1.4,0,0,1-.82,1.25.41.41,0,0,1-.55-.15,2.28,2.28,0,0,0-1.83-1c-1.82,0-2.92,3-2.92,5.86,0,1.75.67,2.64,1.77,2.64a5.59,5.59,0,0,0,3.41-1.83Z" transform="translate(-53 -35.5)"/><circle class="c" cx="449.9" cy="144.83" r="18"/><line class="b" x1="449.9" y1="126.83" x2="449.9" y2="162.83"/><line class="b" x1="431.9" y1="144.83" x2="467.9" y2="144.83"/><line class="b" x1="18" y1="108.5" x2="18.49" y2="337.03"/><polygon points="14.78 334.23 18.48 335.8 22.18 334.21 18.5 343 14.78 334.23"/><rect class="a" x="0.5" y="343" width="35" height="35"/><path d="M88,379v34H54V379H88m1-1H53v36H89V378Z" transform="translate(-53 -35.5)"/><line class="b" x1="0.5" y1="360.5" x2="35.5" y2="360.5"/><line class="b" x1="18" y1="343" x2="18" y2="378"/><line class="b" x1="18.07" y1="145" x2="425.53" y2="145"/><path d="M71.26,184.26A3.76,3.76,0,1,1,75,180.5,3.76,3.76,0,0,1,71.26,184.26Z" transform="translate(-53 -35.5)"/><polygon points="422.72 148.7 424.3 145 422.72 141.3 431.5 145 422.72 148.7"/><line class="b" x1="162.43" y1="90" x2="40.97" y2="90"/><path d="M215.24,121.74a3.76,3.76,0,1,1-3.76,3.76A3.76,3.76,0,0,1,215.24,121.74Z" transform="translate(-53 -35.5)"/><polygon points="43.78 86.3 42.2 90 43.78 93.7 35 90 43.78 86.3"/><line class="b" x1="449.5" y1="0.5" x2="449.5" y2="121.03"/><polygon points="445.8 118.22 449.5 119.8 453.2 118.22 449.5 127 445.8 118.22"/><path d="M524.65,50.78a5.8,5.8,0,0,1-3.36,2.4c-.7,0-1-.57-.53-2.85l.29-1.35c-1.39,2-3.65,4.2-5.35,4.2-.94,0-1.83-.84-1.83-3.09a8.72,8.72,0,0,1,2.81-6.32,7.42,7.42,0,0,1,4-1.7,4.28,4.28,0,0,1,1.75.31l.84-4.13c.19-1,0-1-.86-1.12-.24,0-.75-.05-.92-.05l.15-.65a16.94,16.94,0,0,0,3.05-.62,3.56,3.56,0,0,1,.69-.17c.19,0,.24.21.12.72-1.1,4.73-2.23,9.72-3,14.16-.12.65,0,.91.15.91s.89-.36,1.75-1.27Zm-4.13-2.3a6.65,6.65,0,0,0,1.13-2.55l.48-2.06a3.19,3.19,0,0,0-2.31-.74c-2.76,0-3.93,4-3.93,6.43,0,1.34.36,2,1,2C517.88,51.6,519.3,50.25,520.52,48.48Z" transform="translate(-53 -35.5)"/><line class="b" x1="162.5" y1="288.5" x2="162.5" y2="300.53"/><polygon points="158.8 297.72 162.5 299.3 166.2 297.72 162.5 306.5 158.8 297.72"/><rect class="d" x="126.5" y="307" width="72" height="35.5"/><path d="M202.87,345.68v3.14l-10.36,4.91,10.36,4.91v3.12l-13.72-6.7v-2.69Z" transform="translate(-53 -35.5)"/><path d="M220.15,345.68v3.14l-10.36,4.91,10.36,4.91v3.12l-13.72-6.7v-2.69Z" transform="translate(-53 -35.5)"/><path d="M237.44,345.68v3.14l-10.37,4.91,10.37,4.91v3.12l-13.73-6.7v-2.69Z" transform="translate(-53 -35.5)"/><path d="M233.82,373.28v-.48c1.75-.1,1.85-.2,1.85-1.39v-6.09c0-.81-.14-.85-.84-.92l-.73-.08v-.42a14,14,0,0,0,3.05-.79v8.3c0,1.21.09,1.29,1.86,1.39v.48Z" transform="translate(-53 -35.5)"/><path d="M247.51,371.05c-.22.75-.5,1.62-.66,2.23h-6.11v-.4c.88-.85,1.83-1.8,2.62-2.71a6.3,6.3,0,0,0,1.93-3.83c0-1.29-.68-2-1.83-2a2.81,2.81,0,0,0-2.21,1.47l-.38-.34.93-1.34a2.92,2.92,0,0,1,2.24-1,2.65,2.65,0,0,1,2.76,2.79c0,1.34-.49,2.29-2,3.83-.67.7-1.66,1.65-2.33,2.28h3c.89,0,1.12-.08,1.67-1.09Z" transform="translate(-53 -35.5)"/><rect class="d" x="413.55" y="180.11" width="72" height="35.5"/><path d="M489.92,218.78v3.15l-10.37,4.91,10.37,4.91v3.11l-13.73-6.7v-2.69Z" transform="translate(-53 -35.5)"/><path d="M507.2,218.78v3.15l-10.36,4.91,10.36,4.91v3.11l-13.73-6.7v-2.69Z" transform="translate(-53 -35.5)"/><path d="M524.48,218.78v3.15l-10.36,4.91,10.36,4.91v3.11l-13.73-6.7v-2.69Z" transform="translate(-53 -35.5)"/><path d="M520.87,246.38v-.47c1.75-.11,1.85-.21,1.85-1.4v-6.08c0-.82-.14-.86-.84-.92l-.73-.08V237a13.9,13.9,0,0,0,3-.78v8.29c0,1.21.1,1.29,1.86,1.4v.47Z" transform="translate(-53 -35.5)"/><path d="M530.66,240.33a2.31,2.31,0,0,1,1-.28,2.85,2.85,0,0,1,2.89,3,3.41,3.41,0,0,1-3.37,3.55c-1.92,0-3.38-1.55-3.38-4a6.5,6.5,0,0,1,4.41-6,15.62,15.62,0,0,1,1.91-.43l.1.55a9.72,9.72,0,0,0-1.74.55,5,5,0,0,0-2.88,3.62Zm.33.67a3.15,3.15,0,0,0-1.46.4,6.08,6.08,0,0,0-.1,1.13c0,2,.75,3.45,2.05,3.45s1.56-1.3,1.56-2.36C533,242.25,532.38,241,531,241Z" transform="translate(-53 -35.5)"/><line class="b" x1="449.5" y1="163" x2="449.5" y2="174.03"/><polygon points="445.8 171.22 449.5 172.8 453.2 171.22 449.5 180 445.8 171.22"/><line class="b" x1="449.5" y1="215.5" x2="449.5" y2="390.03"/><polygon points="445.8 387.22 449.5 388.8 453.2 387.22 449.5 396 445.8 387.22"/><line class="b" x1="449.93" y1="234" x2="329.47" y2="234"/><path d="M502.74,265.74A3.76,3.76,0,1,1,499,269.5,3.76,3.76,0,0,1,502.74,265.74Z" transform="translate(-53 -35.5)"/><polygon points="332.28 230.3 330.7 234 332.28 237.7 323.5 234 332.28 230.3"/><line class="b" x1="305.75" y1="251.5" x2="305.75" y2="446.03"/><polygon points="302.05 443.22 305.75 444.8 309.45 443.22 305.75 452 302.05 443.22"/><line class="b" x1="306.43" y1="270" x2="186.97" y2="270"/><path d="M359.24,301.74a3.76,3.76,0,1,1-3.76,3.76A3.76,3.76,0,0,1,359.24,301.74Z" transform="translate(-53 -35.5)"/><polygon points="189.78 266.3 188.21 270 189.78 273.7 181 270 189.78 266.3"/><line class="b" x1="162.27" y1="343.41" x2="162.27" y2="481.03"/><polygon points="158.57 478.22 162.27 479.8 165.97 478.22 162.27 487 158.57 478.22"/><line class="b" x1="162.93" y1="360" x2="41.47" y2="360"/><path d="M215.74,391.74A3.76,3.76,0,1,1,212,395.5,3.76,3.76,0,0,1,215.74,391.74Z" transform="translate(-53 -35.5)"/><polygon points="44.28 356.3 42.7 360 44.28 363.7 35.5 360 44.28 356.3"/><line class="b" x1="17.93" y1="378.91" x2="18.49" y2="643.03"/><polygon points="14.78 640.23 18.48 641.8 22.18 640.22 18.5 649 14.78 640.23"/><line class="b" x1="18.07" y1="415" x2="426.53" y2="415"/><path d="M71.26,454.26A3.76,3.76,0,1,1,75,450.5,3.76,3.76,0,0,1,71.26,454.26Z" transform="translate(-53 -35.5)"/><polygon points="423.72 418.7 425.3 415 423.72 411.3 432.5 415 423.72 418.7"/><circle class="c" cx="450" cy="414.5" r="18"/><line class="b" x1="450" y1="396.5" x2="450" y2="432.5"/><line class="b" x1="432" y1="414.5" x2="468" y2="414.5"/><rect class="d" x="413.55" y="451.08" width="72" height="35.5"/><path d="M489.92,489.75v3.15l-10.37,4.91,10.37,4.9v3.12l-13.73-6.7v-2.69Z" transform="translate(-53 -35.5)"/><path d="M507.2,489.75v3.15l-10.36,4.91,10.36,4.9v3.12l-13.73-6.7v-2.69Z" transform="translate(-53 -35.5)"/><path d="M524.48,489.75v3.15l-10.36,4.91,10.36,4.9v3.12l-13.73-6.7v-2.69Z" transform="translate(-53 -35.5)"/><path d="M527.19,507.19a2.48,2.48,0,0,1,2.67,2.39,1.92,1.92,0,0,1-.46,1.28,14.26,14.26,0,0,1-1.31,1c1.11.61,2.19,1.37,2.19,2.77a3.1,3.1,0,0,1-3.29,2.92c-1.84,0-3.16-1-3.16-2.65a1.86,1.86,0,0,1,.73-1.56,16.35,16.35,0,0,1,1.44-1,2.93,2.93,0,0,1-1.77-2.51A2.75,2.75,0,0,1,527.19,507.19Zm0,9.79a1.61,1.61,0,0,0,1.67-1.83c0-1.25-1-1.86-2.37-2.52a2.41,2.41,0,0,0-1.25,2.13A2,2,0,0,0,527.19,517Zm-.21-9.24a1.43,1.43,0,0,0-1.42,1.6c0,1.15.79,1.6,2,2.24a2.25,2.25,0,0,0,1-1.93C528.58,508.29,527.77,507.74,527,507.74Z" transform="translate(-53 -35.5)"/><line class="b" x1="450" y1="433" x2="450" y2="444.03"/><polygon points="446.3 441.22 450 442.8 453.7 441.22 450 450 446.3 441.22"/><rect class="a" x="288.25" y="451.51" width="35" height="35"/><path d="M375.75,487.51v34h-34v-34h34m1-1h-36v36h36v-36Z" transform="translate(-53 -35.5)"/><line class="b" x1="288.25" y1="469.01" x2="323.25" y2="469.01"/><line class="b" x1="305.75" y1="451.51" x2="305.75" y2="486.51"/><line class="b" x1="413.5" y1="469" x2="329.47" y2="469"/><polygon points="332.28 465.3 330.7 469 332.28 472.7 323.5 469 332.28 465.3"/><line class="b" x1="306" y1="487" x2="306" y2="644.03"/><polygon points="302.3 641.22 306 642.8 309.7 641.22 306 650 302.3 641.22"/><line class="b" x1="450" y1="486.5" x2="450" y2="643.53"/><polygon points="446.3 640.72 450 642.3 453.7 640.72 450 649.5 446.3 640.72"/><circle class="c" cx="162" cy="504.95" r="18"/><line class="b" x1="162" y1="486.95" x2="162" y2="522.95"/><line class="b" x1="144" y1="504.95" x2="180" y2="504.95"/><line class="b" x1="306.43" y1="505" x2="185.97" y2="505"/><path d="M359.24,536.74a3.76,3.76,0,1,1-3.76,3.76A3.76,3.76,0,0,1,359.24,536.74Z" transform="translate(-53 -35.5)"/><polygon points="188.78 501.3 187.21 505 188.78 508.7 180 505 188.78 501.3"/><rect class="d" x="127" y="541.57" width="72" height="35.5"/><path d="M203.37,580.25v3.14L193,588.3l10.36,4.91v3.12l-13.72-6.7v-2.7Z" transform="translate(-53 -35.5)"/><path d="M220.65,580.25v3.14l-10.36,4.91,10.36,4.91v3.12l-13.72-6.7v-2.7Z" transform="translate(-53 -35.5)"/><path d="M237.94,580.25v3.14l-10.37,4.91,10.37,4.91v3.12l-13.73-6.7v-2.7Z" transform="translate(-53 -35.5)"/><path d="M244,598.09c-1.54,3.24-3.05,6.48-4.58,9.78l-1.23.13-.11-.19a94.31,94.31,0,0,0,4.7-8.65h-3.42c-1,0-1.12.14-1.56,1.17h-.52c.18-1,.25-1.76.33-2.46h6.29Z" transform="translate(-53 -35.5)"/><line class="b" x1="162.5" y1="523" x2="162.5" y2="536.03"/><polygon points="158.8 533.22 162.5 534.8 166.2 533.22 162.5 542 158.8 533.22"/><line class="b" x1="161.5" y1="577" x2="161.5" y2="643.03"/><polygon points="157.8 640.22 161.5 641.8 165.2 640.22 161.5 649 157.8 640.22"/></svg>