<?xml version="1.0" encoding="UTF-8" standalone="no"?>
<!-- Created with Inkscape (http://www.inkscape.org/) -->
<svg
   xmlns:dc="http://purl.org/dc/elements/1.1/"
   xmlns:cc="http://creativecommons.org/ns#"
   xmlns:rdf="http://www.w3.org/1999/02/22-rdf-syntax-ns#"
   xmlns:svg="http://www.w3.org/2000/svg"
   xmlns="http://www.w3.org/2000/svg"
   xmlns:sodipodi="http://sodipodi.sourceforge.net/DTD/sodipodi-0.dtd"
   xmlns:inkscape="http://www.inkscape.org/namespaces/inkscape"
   width="1705.7048"
   height="3396.4756"
   id="svg4950"
   sodipodi:version="0.32"
   inkscape:version="0.46"
   version="1.0"
   sodipodi:docname="Serpent-linearfunction-2.svg"
   inkscape:output_extension="org.inkscape.output.svg.inkscape">
  <defs
     id="defs4952" />
  <sodipodi:namedview
     id="base"
     pagecolor="#ffffff"
     bordercolor="#666666"
     borderopacity="1.0"
     gridtolerance="10000"
     guidetolerance="10"
     objecttolerance="10"
     inkscape:pageopacity="0.0"
     inkscape:pageshadow="2"
     inkscape:zoom="0.5"
     inkscape:cx="859.81496"
     inkscape:cy="1265.5301"
     inkscape:document-units="px"
     inkscape:current-layer="layer1"
     showgrid="false"
     inkscape:window-width="1614"
     inkscape:window-height="952"
     inkscape:window-x="0"
     inkscape:window-y="0" />
  <metadata
     id="metadata4955">
    <rdf:RDF>
      <cc:Work
         rdf:about="">
        <dc:format>image/svg+xml</dc:format>
        <dc:type
           rdf:resource="http://purl.org/dc/dcmitype/StillImage" />
      </cc:Work>
    </rdf:RDF>
  </metadata>
  <g
     inkscape:label="Layer 1"
     inkscape:groupmode="layer"
     id="layer1"
     transform="translate(1007.1517,1521.8756)">
    <path
       style="fill:none;fill-rule:evenodd;stroke:#000000;stroke-width:8;stroke-linecap:butt;stroke-linejoin:miter;stroke-miterlimit:4;stroke-dasharray:none;stroke-opacity:1;display:inline"
       d="M 62.651657,-756.8756 L -87.348343,-756.8756 L -253.31101,-648.50493"
       id="path4628" />
    <path
       style="fill:none;fill-rule:evenodd;stroke:#000000;stroke-width:8;stroke-linecap:butt;stroke-linejoin:miter;stroke-miterlimit:4;stroke-dasharray:none;stroke-opacity:1;display:inline"
       d="M 92.651657,-546.8756 L 242.65166,-546.8756 L 422.95566,-420.2649"
       id="path4626" />
    <path
       style="fill:none;fill-rule:evenodd;stroke:#000000;stroke-width:8;stroke-linecap:butt;stroke-linejoin:miter;stroke-miterlimit:4;stroke-dasharray:none;stroke-opacity:1;display:inline"
       d="M -837.34834,-176.8756 L 242.65166,-176.8756 L 415.34766,-294.3103"
       id="path4624" />
    <path
       style="fill:none;fill-opacity:1;stroke:#000000;stroke-width:8;stroke-linecap:butt;stroke-linejoin:round;stroke-miterlimit:4;stroke-dasharray:none;stroke-opacity:1;display:inline"
       d="M -77.260463,1198.1891 L -179.65817,1198.1891 L -179.65817,1012.9542"
       id="path4616"
       sodipodi:nodetypes="ccc" />
    <path
       style="fill:none;fill-rule:evenodd;stroke:#000000;stroke-width:7.99999952;stroke-linecap:butt;stroke-linejoin:miter;stroke-miterlimit:4;stroke-dasharray:none;stroke-opacity:1;display:inline"
       d="M 512.65165,993.12436 L 365.57624,993.12436 L 200.84896,1117.4897"
       id="path4622" />
    <path
       style="fill:none;fill-rule:evenodd;stroke:#000000;stroke-width:8;stroke-linecap:butt;stroke-linejoin:miter;stroke-miterlimit:4;stroke-dasharray:none;stroke-opacity:1;display:inline"
       d="M -845.00002,-1406.8756 L -845.00002,1793.1244"
       id="path4261" />
    <path
       style="fill:none;fill-rule:evenodd;stroke:#000000;stroke-width:8;stroke-linecap:butt;stroke-linejoin:miter;stroke-miterlimit:4;stroke-dasharray:none;stroke-opacity:1;display:inline"
       d="M 75.934357,-1406.8756 L 75.934357,1793.1244"
       id="path4265" />
    <path
       style="fill:#000000;fill-opacity:1;fill-rule:evenodd;stroke:#000000;stroke-width:1px;stroke-linecap:butt;stroke-linejoin:miter;stroke-opacity:1;display:inline"
       d="M -84.276343,1231.2097 L -84.276343,1163.2097 L -25.276343,1197.2097 L -84.276343,1231.2097 z"
       id="path4536"
       sodipodi:nodetypes="cccc" />
    <path
       style="fill:none;fill-rule:evenodd;stroke:#000000;stroke-width:8;stroke-linecap:butt;stroke-linejoin:miter;stroke-miterlimit:4;stroke-dasharray:none;stroke-opacity:1;display:inline"
       d="M 552.65166,823.1244 L -547.34834,823.1244 L -722.02081,699.8823"
       id="path4562" />
    <path
       style="fill:none;fill-rule:evenodd;stroke:#000000;stroke-width:8;stroke-linecap:butt;stroke-linejoin:miter;stroke-miterlimit:4;stroke-dasharray:none;stroke-opacity:1;display:inline"
       d="M -397.34834,443.1244 L -547.34834,443.1244 L -719.96068,560.8238"
       id="path4564" />
    <path
       style="fill:none;fill-opacity:1;stroke:#000000;stroke-width:8;stroke-linecap:butt;stroke-linejoin:round;stroke-miterlimit:4;stroke-dasharray:none;stroke-opacity:1;display:inline"
       d="M -383.4709,681.1156 L -179.57025,681.1156 L -179.57025,807.1331"
       id="rect4570"
       sodipodi:nodetypes="ccc" />
    <path
       style="fill:none;fill-rule:evenodd;stroke:#000000;stroke-width:8;stroke-linecap:butt;stroke-linejoin:miter;stroke-miterlimit:4;stroke-dasharray:none;stroke-opacity:1;display:inline"
       d="M 536.40156,-1406.8756 L 536.40156,1793.1244"
       id="path4267" />
    <path
       style="fill:#000000;fill-opacity:1;fill-rule:evenodd;stroke:#000000;stroke-width:0.97554117px;stroke-linecap:butt;stroke-linejoin:miter;stroke-opacity:1;display:inline"
       d="M 190.10766,1084.0871 L 226.73756,1139.0746 L 159.72996,1142.7213 L 190.10766,1084.0871 z"
       id="path4548"
       sodipodi:nodetypes="cccc" />
    <path
       style="fill:none;fill-rule:evenodd;stroke:#000000;stroke-width:8;stroke-linecap:butt;stroke-linejoin:miter;stroke-miterlimit:4;stroke-dasharray:none;stroke-opacity:1;display:inline"
       d="M -384.53285,-1372.8756 L -384.53285,1827.1244"
       id="path4263" />
    <path
       style="fill:#000000;fill-opacity:1;fill-rule:evenodd;stroke:#000000;stroke-width:0.97554117px;stroke-linecap:butt;stroke-linejoin:miter;stroke-opacity:1;display:inline"
       d="M -262.24113,-679.70862 L -225.61123,-624.72112 L -292.61883,-621.07442 L -262.24113,-679.70862 z"
       id="path4550"
       sodipodi:nodetypes="cccc" />
    <path
       style="fill:#000000;fill-opacity:1;fill-rule:evenodd;stroke:#000000;stroke-width:0.88348824px;stroke-linecap:butt;stroke-linejoin:miter;stroke-opacity:1;display:inline"
       d="M -501.61932,-678.48948 L -533.61435,-626.85649 L -475.08539,-623.43226 L -501.61932,-678.48948 z"
       id="path4552"
       sodipodi:nodetypes="cccc" />
    <path
       style="fill:#000000;fill-opacity:1;fill-rule:evenodd;stroke:#000000;stroke-width:0.97554117px;stroke-linecap:butt;stroke-linejoin:miter;stroke-opacity:1;display:inline"
       d="M -730.10644,528.49773 L -693.47654,583.48523 L -760.48414,587.13193 L -730.10644,528.49773 z"
       id="path4554"
       sodipodi:nodetypes="cccc" />
    <path
       style="fill:#000000;fill-opacity:1;fill-rule:evenodd;stroke:#000000;stroke-width:0.97554117px;stroke-linecap:butt;stroke-linejoin:miter;stroke-opacity:1;display:inline"
       d="M -721.85621,741.87306 L -685.22631,686.88556 L -752.23391,683.23886 L -721.85621,741.87306 z"
       id="path4556"
       sodipodi:nodetypes="cccc" />
    <path
       style="fill:none;fill-rule:evenodd;stroke:#000000;stroke-width:8;stroke-linecap:butt;stroke-linejoin:miter;stroke-miterlimit:4;stroke-dasharray:none;stroke-opacity:1;display:inline"
       d="M -842.34834,-761.8756 L -682.34834,-761.8756 L -502.62229,-640.53274"
       id="path4632" />
    <path
       style="fill:#000000;fill-opacity:1;fill-rule:evenodd;stroke:#000000;stroke-width:0.97554117px;stroke-linecap:butt;stroke-linejoin:miter;stroke-opacity:1;display:inline"
       d="M 413.88275,-256.41664 L 377.25285,-311.40414 L 444.26045,-315.05084 L 413.88275,-256.41664 z"
       id="path5795"
       sodipodi:nodetypes="cccc" />
    <path
       style="fill:#000000;fill-opacity:1;fill-rule:evenodd;stroke:#000000;stroke-width:1px;stroke-linecap:butt;stroke-linejoin:miter;stroke-opacity:1;display:inline"
       d="M -212.68104,804.4758 L -144.68104,804.4758 L -178.68104,863.4758 L -212.68104,804.4758 z"
       id="path4544"
       sodipodi:nodetypes="cccc" />
    <path
       style="fill:#000000;fill-opacity:1;fill-rule:evenodd;stroke:#000000;stroke-width:0.97554117px;stroke-linecap:butt;stroke-linejoin:miter;stroke-opacity:1;display:inline"
       d="M 415.27554,-460.38338 L 378.64563,-405.39588 L 445.65323,-401.74918 L 415.27554,-460.38338 z"
       id="path5793"
       sodipodi:nodetypes="cccc" />
    <rect
       style="fill:#ffd060;fill-opacity:1;stroke:#000000;stroke-width:7.6543169;stroke-linecap:round;stroke-linejoin:miter;stroke-miterlimit:4;stroke-dasharray:none;stroke-opacity:1;display:inline"
       id="rect4231"
       width="294.53912"
       height="154.81279"
       x="-331.88745"
       y="868.31165" />
    <rect
       style="fill:#ffd060;fill-opacity:1;stroke:#000000;stroke-width:7.55434608;stroke-linecap:round;stroke-linejoin:miter;stroke-miterlimit:4;stroke-dasharray:none;stroke-opacity:1;display:inline"
       id="rect4241"
       width="296.31528"
       height="149.8914"
       x="-313.57117"
       y="-256.64978" />
    <path
       sodipodi:type="arc"
       style="fill:#b5b5b5;fill-opacity:1;stroke:#000000;stroke-width:10.02586555;stroke-linecap:round;stroke-linejoin:miter;stroke-miterlimit:4;stroke-dasharray:none;stroke-opacity:1;display:inline"
       id="path4247"
       sodipodi:cx="115"
       sodipodi:cy="1328"
       sodipodi:rx="45"
       sodipodi:ry="45"
       d="M 160,1328 A 45,45 0 1 1 70,1328 A 45,45 0 1 1 160,1328 z"
       transform="matrix(0.9052922,0,0,0.9052922,-949.10862,-1383.8273)" />
    <rect
       style="fill:#9dff7f;fill-opacity:1;stroke:#000000;stroke-width:7.65072727;stroke-linecap:round;stroke-linejoin:miter;stroke-miterlimit:4;stroke-dasharray:none;stroke-opacity:1;display:inline"
       id="rect4239"
       width="296.1528"
       height="153.82486"
       x="-993.07642"
       y="-1076.8538" />
    <rect
       style="fill:#9dff7f;fill-opacity:1;stroke:#000000;stroke-width:7.65185928;stroke-linecap:round;stroke-linejoin:miter;stroke-miterlimit:4;stroke-dasharray:none;stroke-opacity:1;display:inline"
       id="rect4229"
       width="296.24261"
       height="153.82373"
       x="-993.12134"
       y="1076.9503" />
    <rect
       style="fill:#ffef7f;fill-opacity:1;stroke:#000000;stroke-width:8;stroke-linecap:round;stroke-linejoin:miter;stroke-miterlimit:4;stroke-dasharray:none;stroke-opacity:1;display:inline"
       id="rect3426"
       width="316.30331"
       height="157.47556"
       x="-1003.1517"
       y="-1516.8756" />
    <rect
       style="fill:#ffef7f;fill-opacity:1;stroke:#000000;stroke-width:8;stroke-linecap:round;stroke-linejoin:miter;stroke-miterlimit:4;stroke-dasharray:none;stroke-opacity:1;display:inline"
       id="rect4223"
       width="316.30331"
       height="157.47556"
       x="-1003.1517"
       y="1712.1244" />
    <path
       sodipodi:type="arc"
       style="fill:#b5b5b5;fill-opacity:1;stroke:#000000;stroke-width:10.02586555;stroke-linecap:round;stroke-linejoin:miter;stroke-miterlimit:4;stroke-dasharray:none;stroke-opacity:1;display:inline"
       id="path4249"
       sodipodi:cx="115"
       sodipodi:cy="1328"
       sodipodi:rx="45"
       sodipodi:ry="45"
       d="M 160,1328 A 45,45 0 1 1 70,1328 A 45,45 0 1 1 160,1328 z"
       transform="matrix(0.9052922,0,0,0.9052922,-28.174246,-1966.1036)" />
    <path
       sodipodi:type="arc"
       style="fill:#b5b5b5;fill-opacity:1;stroke:#000000;stroke-width:10.02586555;stroke-linecap:round;stroke-linejoin:miter;stroke-miterlimit:4;stroke-dasharray:none;stroke-opacity:1;display:inline"
       id="path4251"
       sodipodi:cx="115"
       sodipodi:cy="1328"
       sodipodi:rx="45"
       sodipodi:ry="45"
       d="M 160,1328 A 45,45 0 1 1 70,1328 A 45,45 0 1 1 160,1328 z"
       transform="matrix(0.9052922,0,0,0.9052922,-28.174246,-1754.1036)" />
    <rect
       style="fill:#9dff7f;fill-opacity:1;stroke:#000000;stroke-width:7.70630598;stroke-linecap:round;stroke-linejoin:miter;stroke-miterlimit:4;stroke-dasharray:none;stroke-opacity:1;display:inline"
       id="rect4237"
       width="296.0972"
       height="156.09721"
       x="-72.114243"
       y="-1076.8259" />
    <rect
       style="fill:#9dff7f;fill-opacity:1;stroke:#000000;stroke-width:7.65573025;stroke-linecap:round;stroke-linejoin:miter;stroke-miterlimit:4;stroke-dasharray:none;stroke-opacity:1;display:inline"
       id="rect4225"
       width="296.54987"
       height="153.81985"
       x="-72.340576"
       y="1405.4767" />
    <rect
       style="fill:#ffef7f;fill-opacity:1;stroke:#000000;stroke-width:8;stroke-linecap:round;stroke-linejoin:miter;stroke-miterlimit:4;stroke-dasharray:none;stroke-opacity:1;display:inline"
       id="rect4213"
       width="316.30331"
       height="157.47556"
       x="-82.2173"
       y="-1517.8756" />
    <rect
       style="fill:#ffef7f;fill-opacity:1;stroke:#000000;stroke-width:8;stroke-linecap:round;stroke-linejoin:miter;stroke-miterlimit:4;stroke-dasharray:none;stroke-opacity:1;display:inline"
       id="rect4219"
       width="316.30331"
       height="157.47556"
       x="-82.2173"
       y="1712.1244" />
    <path
       sodipodi:type="arc"
       style="fill:#b5b5b5;fill-opacity:1;stroke:#000000;stroke-width:10.02586555;stroke-linecap:round;stroke-linejoin:miter;stroke-miterlimit:4;stroke-dasharray:none;stroke-opacity:1;display:inline"
       id="path4255"
       sodipodi:cx="115"
       sodipodi:cy="1328"
       sodipodi:rx="45"
       sodipodi:ry="45"
       d="M 160,1328 A 45,45 0 1 1 70,1328 A 45,45 0 1 1 160,1328 z"
       transform="matrix(0.9052922,0,0,0.9052922,432.29296,-213.1036)" />
    <rect
       style="fill:#9dff7f;fill-opacity:1;stroke:#000000;stroke-width:7.60702896;stroke-linecap:round;stroke-linejoin:miter;stroke-miterlimit:4;stroke-dasharray:none;stroke-opacity:1;display:inline"
       id="rect4235"
       width="292.69626"
       height="153.86856"
       x="390.05344"
       y="39.255875" />
    <rect
       style="fill:#ffef7f;fill-opacity:1;stroke:#000000;stroke-width:8;stroke-linecap:round;stroke-linejoin:miter;stroke-miterlimit:4;stroke-dasharray:none;stroke-opacity:1;display:inline"
       id="rect4215"
       width="316.30331"
       height="157.47556"
       x="378.24991"
       y="-1516.8756" />
    <rect
       style="fill:#ffef7f;fill-opacity:1;stroke:#000000;stroke-width:8;stroke-linecap:round;stroke-linejoin:miter;stroke-miterlimit:4;stroke-dasharray:none;stroke-opacity:1;display:inline"
       id="rect4217"
       width="316.30331"
       height="157.47556"
       x="378.24991"
       y="1713.1244" />
    <path
       sodipodi:type="arc"
       style="fill:#b5b5b5;fill-opacity:1;stroke:#000000;stroke-width:10.02586555;stroke-linecap:round;stroke-linejoin:miter;stroke-miterlimit:4;stroke-dasharray:none;stroke-opacity:1;display:inline"
       id="path4253"
       sodipodi:cx="115"
       sodipodi:cy="1328"
       sodipodi:rx="45"
       sodipodi:ry="45"
       d="M 160,1328 A 45,45 0 1 1 70,1328 A 45,45 0 1 1 160,1328 z"
       transform="matrix(0.9052922,0,0,0.9052922,432.29296,-381.1036)" />
    <rect
       style="fill:#9dff7f;fill-opacity:1;stroke:#000000;stroke-width:7.7400403;stroke-linecap:round;stroke-linejoin:miter;stroke-miterlimit:4;stroke-dasharray:none;stroke-opacity:1;display:inline"
       id="rect4233"
       width="298.7597"
       height="156.06349"
       x="-533.91272"
       y="33.190933" />
    <rect
       style="fill:#ffef7f;fill-opacity:1;stroke:#000000;stroke-width:8;stroke-linecap:round;stroke-linejoin:miter;stroke-miterlimit:4;stroke-dasharray:none;stroke-opacity:1;display:inline"
       id="rect4211"
       width="316.30331"
       height="157.47556"
       x="-542.68451"
       y="-1516.8756" />
    <rect
       style="fill:#ffef7f;fill-opacity:1;stroke:#000000;stroke-width:8;stroke-linecap:round;stroke-linejoin:miter;stroke-miterlimit:4;stroke-dasharray:none;stroke-opacity:1;display:inline"
       id="rect4221"
       width="316.30331"
       height="157.47556"
       x="-542.68451"
       y="1712.1244" />
    <path
       sodipodi:type="arc"
       style="fill:#b5b5b5;fill-opacity:1;stroke:#000000;stroke-width:10.02586555;stroke-linecap:round;stroke-linejoin:miter;stroke-miterlimit:4;stroke-dasharray:none;stroke-opacity:1;display:inline"
       id="path4560"
       sodipodi:cx="115"
       sodipodi:cy="1328"
       sodipodi:rx="45"
       sodipodi:ry="45"
       d="M 160,1328 A 45,45 0 1 1 70,1328 A 45,45 0 1 1 160,1328 z"
       transform="matrix(0.9052922,0,0,0.9052922,-488.64145,-523.10364)" />
    <path
       sodipodi:type="arc"
       style="fill:#b5b5b5;fill-opacity:1;stroke:#000000;stroke-width:10.02586555;stroke-linecap:round;stroke-linejoin:miter;stroke-miterlimit:4;stroke-dasharray:none;stroke-opacity:1;display:inline"
       id="path4558"
       sodipodi:cx="115"
       sodipodi:cy="1328"
       sodipodi:rx="45"
       sodipodi:ry="45"
       d="M 160,1328 A 45,45 0 1 1 70,1328 A 45,45 0 1 1 160,1328 z"
       transform="matrix(0.9052922,0,0,0.9052922,-488.64145,-755.10364)" />
    <path
       transform="translate(-314.35087,420.7431)"
       style="font-size:100px;font-style:normal;font-weight:normal;fill:#000000;fill-opacity:1;stroke:none;stroke-width:1px;stroke-linecap:butt;stroke-linejoin:miter;stroke-opacity:1;display:inline;font-family:Bitstream Vera Sans"
       d="M 94.130859,490.73742 L 43.740234,508.65734 L 94.130859,526.4796 L 94.130859,535.36632 L 31.533203,512.66124 L 31.533203,504.55578 L 94.130859,481.8507 L 94.130859,490.73742 M 177.91992,490.73742 L 127.5293,508.65734 L 177.91992,526.4796 L 177.91992,535.36632 L 115.32227,512.66124 L 115.32227,504.55578 L 177.91992,481.8507 L 177.91992,490.73742"
       id="flowRoot4406" />
    <path
       transform="translate(-357.75269,407.1252)"
       style="font-size:58px;font-style:normal;font-variant:normal;font-weight:normal;font-stretch:normal;text-align:start;line-height:100%;writing-mode:lr-tb;text-anchor:start;fill:#000000;fill-opacity:1;stroke:none;stroke-width:1px;stroke-linecap:butt;stroke-linejoin:miter;stroke-opacity:1;display:inline;font-family:Bitstream Vera Sans;-inkscape-font-specification:Bitstream Vera Sans"
       d="M 234.97656,540.96693 L 262.16406,540.96693 L 262.16406,543.40248 L 246.81445,583.24916 L 240.83887,583.24916 L 255.28223,545.78139 L 234.97656,545.78139 L 234.97656,540.96693"
       id="flowRoot4414" />
    <path
       transform="translate(-294.35089,-703.25694)"
       style="font-size:100px;font-style:normal;font-weight:normal;fill:#000000;fill-opacity:1;stroke:none;stroke-width:1px;stroke-linecap:butt;stroke-linejoin:miter;stroke-opacity:1;display:inline;font-family:Bitstream Vera Sans"
       d="M 94.130859,490.73742 L 43.740234,508.65734 L 94.130859,526.4796 L 94.130859,535.36632 L 31.533203,512.66124 L 31.533203,504.55578 L 94.130859,481.8507 L 94.130859,490.73742 M 177.91992,490.73742 L 127.5293,508.65734 L 177.91992,526.4796 L 177.91992,535.36632 L 115.32227,512.66124 L 115.32227,504.55578 L 177.91992,481.8507 L 177.91992,490.73742"
       id="flowRoot4422" />
    <path
       transform="translate(-339.75271,-717.87483)"
       style="font-size:58px;font-style:normal;font-variant:normal;font-weight:normal;font-stretch:normal;text-align:start;line-height:100%;writing-mode:lr-tb;text-anchor:start;fill:#000000;fill-opacity:1;stroke:none;stroke-width:1px;stroke-linecap:butt;stroke-linejoin:miter;stroke-opacity:1;display:inline;font-family:Bitstream Vera Sans;-inkscape-font-specification:Bitstream Vera Sans"
       d="M 253.75293,560.45131 C 256.49053,561.03662 258.624,562.25439 260.15332,564.10463 C 261.70147,565.95491 262.47555,568.23941 262.47559,570.95815 C 262.47555,575.13068 261.04066,578.35919 258.1709,580.64369 C 255.30108,582.9282 251.22296,584.07045 245.93652,584.07045 C 244.16177,584.07045 242.33039,583.89109 240.44238,583.53236 C 238.57323,583.19252 236.63801,582.67332 234.63672,581.97475 L 234.63672,576.45229 C 236.22265,577.37742 237.95963,578.07599 239.84766,578.54799 C 241.73567,579.02 243.70865,579.256 245.7666,579.256 C 249.35382,579.256 252.08201,578.54799 253.95117,577.13197 C 255.83917,575.71597 256.78318,573.65802 256.7832,570.95815 C 256.78318,568.46597 255.90525,566.52131 254.14941,565.12416 C 252.41241,563.70816 249.98631,563.00016 246.87109,563.00014 L 241.94336,563.00014 L 241.94336,558.29897 L 247.09766,558.29897 C 249.91079,558.29899 252.06313,557.74203 253.55469,556.62807 C 255.0462,555.49528 255.79197,553.87159 255.79199,551.75697 C 255.79197,549.58578 255.01788,547.92433 253.46973,546.7726 C 251.94041,545.60206 249.74087,545.01678 246.87109,545.01674 C 245.30402,545.01678 243.62368,545.1867 241.83008,545.5265 C 240.03645,545.86639 238.06347,546.39503 235.91113,547.11244 L 235.91113,542.01479 C 238.08235,541.41066 240.11197,540.95754 242,540.65541 C 243.90689,540.35337 245.70051,540.20233 247.38086,540.20229 C 251.72329,540.20233 255.15948,541.19354 257.68945,543.17592 C 260.21937,545.1395 261.48434,547.80161 261.48438,551.16225 C 261.48434,553.50342 260.8141,555.48584 259.47363,557.10951 C 258.13311,558.71435 256.22621,559.82829 253.75293,560.45131"
       id="flowRoot4430" />
    <path
       transform="translate(-998.16877,-1522.2419)"
       style="font-size:100px;font-style:normal;font-weight:normal;fill:#000000;fill-opacity:1;stroke:none;stroke-width:1px;stroke-linecap:butt;stroke-linejoin:miter;stroke-opacity:1;font-family:Bitstream Vera Sans"
       d="M 94.130859,490.73742 L 43.740234,508.65734 L 94.130859,526.4796 L 94.130859,535.36632 L 31.533203,512.66124 L 31.533203,504.55578 L 94.130859,481.8507 L 94.130859,490.73742 M 177.91992,490.73742 L 127.5293,508.65734 L 177.91992,526.4796 L 177.91992,535.36632 L 115.32227,512.66124 L 115.32227,504.55578 L 177.91992,481.8507 L 177.91992,490.73742 M 261.70898,490.73742 L 211.31836,508.65734 L 261.70898,526.4796 L 261.70898,535.36632 L 199.11133,512.66124 L 199.11133,504.55578 L 261.70898,481.8507 L 261.70898,490.73742"
       id="flowRoot4277" />
    <path
       transform="translate(-1014.689,-1522.0779)"
       style="font-size:58px;font-style:normal;font-variant:normal;font-weight:normal;font-stretch:normal;text-align:start;line-height:100%;writing-mode:lr-tb;text-anchor:start;fill:#000000;fill-opacity:1;stroke:none;stroke-width:1px;stroke-linecap:butt;stroke-linejoin:miter;stroke-opacity:1;font-family:Bitstream Vera Sans;-inkscape-font-specification:Bitstream Vera Sans"
       d="M 237.41211,578.43471 L 246.75781,578.43471 L 246.75781,546.17787 L 236.59082,548.21693 L 236.59082,543.006 L 246.70117,540.96693 L 252.42188,540.96693 L 252.42188,578.43471 L 261.76758,578.43471 L 261.76758,583.24916 L 237.41211,583.24916 L 237.41211,578.43471 M 290.68262,560.45131 C 293.42022,561.03662 295.55368,562.25439 297.08301,564.10463 C 298.63115,565.95491 299.40524,568.23941 299.40527,570.95815 C 299.40524,575.13068 297.97035,578.35919 295.10059,580.64369 C 292.23077,582.9282 288.15265,584.07045 282.86621,584.07045 C 281.09146,584.07045 279.26008,583.89109 277.37207,583.53236 C 275.50292,583.19252 273.5677,582.67332 271.56641,581.97475 L 271.56641,576.45229 C 273.15234,577.37742 274.88932,578.07599 276.77734,578.54799 C 278.66535,579.02 280.63833,579.256 282.69629,579.256 C 286.28351,579.256 289.0117,578.54799 290.88086,577.13197 C 292.76885,575.71597 293.71286,573.65802 293.71289,570.95815 C 293.71286,568.46597 292.83494,566.52131 291.0791,565.12416 C 289.3421,563.70816 286.916,563.00016 283.80078,563.00014 L 278.87305,563.00014 L 278.87305,558.29897 L 284.02734,558.29897 C 286.84048,558.29899 288.99282,557.74203 290.48438,556.62807 C 291.97589,555.49528 292.72165,553.87159 292.72168,551.75697 C 292.72165,549.58578 291.94757,547.92433 290.39941,546.7726 C 288.8701,545.60206 286.67055,545.01678 283.80078,545.01674 C 282.23371,545.01678 280.55337,545.1867 278.75977,545.5265 C 276.96614,545.86639 274.99316,546.39503 272.84082,547.11244 L 272.84082,542.01479 C 275.01204,541.41066 277.04166,540.95754 278.92969,540.65541 C 280.83657,540.35337 282.63019,540.20233 284.31055,540.20229 C 288.65297,540.20233 292.08917,541.19354 294.61914,543.17592 C 297.14906,545.1395 298.41403,547.80161 298.41406,551.16225 C 298.41403,553.50342 297.74378,555.48584 296.40332,557.10951 C 295.0628,558.71435 293.1559,559.82829 290.68262,560.45131"
       id="flowRoot4293" />
    <path
       transform="translate(-999.75072,631.4728)"
       style="font-size:100px;font-style:normal;font-weight:normal;fill:#000000;fill-opacity:1;stroke:none;stroke-width:1px;stroke-linecap:butt;stroke-linejoin:miter;stroke-opacity:1;display:inline;font-family:Bitstream Vera Sans"
       d="M 94.130859,490.73742 L 43.740234,508.65734 L 94.130859,526.4796 L 94.130859,535.36632 L 31.533203,512.66124 L 31.533203,504.55578 L 94.130859,481.8507 L 94.130859,490.73742 M 177.91992,490.73742 L 127.5293,508.65734 L 177.91992,526.4796 L 177.91992,535.36632 L 115.32227,512.66124 L 115.32227,504.55578 L 177.91992,481.8507 L 177.91992,490.73742 M 261.70898,490.73742 L 211.31836,508.65734 L 261.70898,526.4796 L 261.70898,535.36632 L 199.11133,512.66124 L 199.11133,504.55578 L 261.70898,481.8507 L 261.70898,490.73742"
       id="flowRoot4374" />
    <path
       transform="translate(-988.99804,632.8549)"
       style="font-size:58px;font-style:normal;font-variant:normal;font-weight:normal;font-stretch:normal;text-align:start;line-height:100%;writing-mode:lr-tb;text-anchor:start;fill:#000000;fill-opacity:1;stroke:none;stroke-width:1px;stroke-linecap:butt;stroke-linejoin:miter;stroke-opacity:1;display:inline;font-family:Bitstream Vera Sans;-inkscape-font-specification:Bitstream Vera Sans"
       d="M 236.47754,540.96693 L 258.93555,540.96693 L 258.93555,545.78139 L 241.7168,545.78139 L 241.7168,556.14662 C 242.54751,555.86345 243.37824,555.65576 244.20898,555.52358 C 245.0397,555.37256 245.87043,555.29704 246.70117,555.29701 C 251.4212,555.29704 255.15948,556.59033 257.91602,559.1769 C 260.6725,561.76351 262.05075,565.26578 262.05078,569.68373 C 262.05075,574.23387 260.63474,577.77391 257.80273,580.30385 C 254.97068,582.81492 250.97752,584.07045 245.82324,584.07045 C 244.04849,584.07045 242.23599,583.91941 240.38574,583.61733 C 238.55435,583.31524 236.65689,582.86212 234.69336,582.25795 L 234.69336,576.50893 C 236.39257,577.43406 238.14843,578.12319 239.96094,578.57631 C 241.77343,579.02944 243.68977,579.256 245.70996,579.256 C 248.97622,579.256 251.5628,578.39695 253.46973,576.67885 C 255.3766,574.96076 256.33005,572.62905 256.33008,569.68373 C 256.33005,566.73844 255.3766,564.40673 253.46973,562.68861 C 251.5628,560.97054 248.97622,560.11149 245.70996,560.11147 C 244.18065,560.11149 242.65135,560.28141 241.12207,560.62123 C 239.61164,560.9611 238.06347,561.48974 236.47754,562.20717 L 236.47754,540.96693"
       id="flowRoot4382" />
    <path
       style="font-size:95px;font-style:normal;font-weight:normal;fill:#000000;fill-opacity:1;stroke:none;stroke-width:1px;stroke-linecap:butt;stroke-linejoin:miter;stroke-opacity:1;display:inline;font-family:Bitstream Vera Sans"
       d="M -855.11981,-1486.9 L -867.82977,-1452.4347 L -842.36346,-1452.4347 L -855.11981,-1486.9 M -860.4079,-1496.131 L -849.78534,-1496.131 L -823.3913,-1426.8756 L -833.13251,-1426.8756 L -839.4411,-1444.6417 L -870.65936,-1444.6417 L -876.96796,-1426.8756 L -886.84833,-1426.8756 L -860.4079,-1496.131"
       id="text4438" />
    <path
       style="font-size:68px;font-style:normal;font-weight:normal;fill:#000000;fill-opacity:1;stroke:none;stroke-width:1px;stroke-linecap:butt;stroke-linejoin:miter;stroke-opacity:1;display:inline;font-family:Bitstream Vera Sans"
       d="M -808.83667,-1432.0553 L -802.72729,-1432.0553 L -802.72729,-1394.2037 C -802.72731,-1389.4668 -803.63486,-1386.0358 -805.44995,-1383.9108 C -807.24293,-1381.7858 -810.14266,-1380.7233 -814.14917,-1380.7233 L -816.47339,-1380.7233 L -816.47339,-1385.903 L -814.84644,-1385.903 C -812.52222,-1385.903 -810.93954,-1386.4453 -810.09839,-1387.5299 C -809.25725,-1388.5924 -808.83668,-1390.817 -808.83667,-1394.2037 L -808.83667,-1432.0553 M -808.83667,-1446.5319 L -802.72729,-1446.5319 L -802.72729,-1438.7955 L -808.83667,-1438.7955 L -808.83667,-1446.5319"
       id="text4482" />
    <path
       style="font-size:95px;font-style:normal;font-weight:normal;fill:#000000;fill-opacity:1;stroke:none;stroke-width:1px;stroke-linecap:butt;stroke-linejoin:miter;stroke-opacity:1;display:inline;font-family:Bitstream Vera Sans"
       d="M -861.84833,1747.7277 L -874.55829,1782.193 L -849.09198,1782.193 L -861.84833,1747.7277 M -867.13641,1738.4967 L -856.51385,1738.4967 L -830.11981,1807.7521 L -839.86102,1807.7521 L -846.16962,1789.986 L -877.38788,1789.986 L -883.69647,1807.7521 L -893.57684,1807.7521 L -867.13641,1738.4967"
       id="text4454" />
    <path
       style="font-size:62px;font-style:normal;font-weight:normal;fill:#000000;fill-opacity:1;stroke:none;stroke-width:1px;stroke-linecap:butt;stroke-linejoin:miter;stroke-opacity:1;display:inline;font-family:Bitstream Vera Sans"
       d="M -812.00555,1806.5382 L -806.43524,1806.5382 L -806.43524,1841.0499 C -806.43525,1845.3689 -807.26273,1848.4972 -808.91766,1850.4347 C -810.55244,1852.3722 -813.19631,1853.3409 -816.8493,1853.3409 L -818.96844,1853.3409 L -818.96844,1848.6183 L -817.48505,1848.6183 C -815.36591,1848.6183 -813.92288,1848.1238 -813.15594,1847.1349 C -812.38902,1846.1661 -812.00556,1844.1378 -812.00555,1841.0499 L -812.00555,1806.5382 M -812.00555,1793.339 L -806.43524,1793.339 L -806.43524,1800.3927 L -812.00555,1800.3927 L -812.00555,1793.339 M -772.13544,1801.5734 L -772.13544,1818.4357 L -755.27313,1818.4357 L -755.27313,1823.5822 L -772.13544,1823.5822 L -772.13544,1840.4445 L -777.22137,1840.4445 L -777.22137,1823.5822 L -794.08368,1823.5822 L -794.08368,1818.4357 L -777.22137,1818.4357 L -777.22137,1801.5734 L -772.13544,1801.5734 M -741.01434,1835.298 L -731.02411,1835.298 L -731.02411,1800.8165 L -741.89227,1802.9962 L -741.89227,1797.4259 L -731.08466,1795.2462 L -724.96942,1795.2462 L -724.96942,1835.298 L -714.97919,1835.298 L -714.97919,1840.4445 L -741.01434,1840.4445 L -741.01434,1835.298"
       id="text4486" />
    <g
       id="g7337">
      <path
         transform="matrix(0.9639665,0,0,0.9639665,-1433.0196,-266.2294)"
         d="M 710,943 A 100,100 0 1 1 510,943 A 100,100 0 1 1 710,943 z"
         sodipodi:ry="100"
         sodipodi:rx="100"
         sodipodi:cy="943"
         sodipodi:cx="610"
         id="path4515"
         style="fill:#7fd7ff;fill-opacity:1;stroke:#000000;stroke-width:8;stroke-linecap:round;stroke-linejoin:miter;stroke-miterlimit:4;stroke-dasharray:none;stroke-opacity:1;display:inline"
         sodipodi:type="arc" />
      <path
         id="path4517"
         d="M -844.99998,709.1877 L -844.99998,576.3943"
         style="fill:none;fill-rule:evenodd;stroke:#000000;stroke-width:8;stroke-linecap:butt;stroke-linejoin:miter;stroke-miterlimit:4;stroke-dasharray:none;stroke-opacity:1;display:inline" />
      <path
         id="path4519"
         d="M -911.39668,642.791 L -778.60328,642.791"
         style="fill:none;fill-rule:evenodd;stroke:#000000;stroke-width:8;stroke-linecap:butt;stroke-linejoin:miter;stroke-miterlimit:4;stroke-dasharray:none;stroke-opacity:1;display:inline" />
    </g>
    <path
       transform="translate(-79.398825,-1523.46)"
       style="font-size:100px;font-style:normal;font-weight:normal;fill:#000000;fill-opacity:1;stroke:none;stroke-width:1px;stroke-linecap:butt;stroke-linejoin:miter;stroke-opacity:1;display:inline;font-family:Bitstream Vera Sans"
       d="M 94.130859,490.73742 L 43.740234,508.65734 L 94.130859,526.4796 L 94.130859,535.36632 L 31.533203,512.66124 L 31.533203,504.55578 L 94.130859,481.8507 L 94.130859,490.73742 M 177.91992,490.73742 L 127.5293,508.65734 L 177.91992,526.4796 L 177.91992,535.36632 L 115.32227,512.66124 L 115.32227,504.55578 L 177.91992,481.8507 L 177.91992,490.73742 M 261.70898,490.73742 L 211.31836,508.65734 L 261.70898,526.4796 L 261.70898,535.36632 L 199.11133,512.66124 L 199.11133,504.55578 L 261.70898,481.8507 L 261.70898,490.73742"
       id="flowRoot4326" />
    <path
       transform="translate(-71.800645,-1522.0779)"
       style="font-size:58px;font-style:normal;font-variant:normal;font-weight:normal;font-stretch:normal;text-align:start;line-height:100%;writing-mode:lr-tb;text-anchor:start;fill:#000000;fill-opacity:1;stroke:none;stroke-width:1px;stroke-linecap:butt;stroke-linejoin:miter;stroke-opacity:1;display:inline;font-family:Bitstream Vera Sans;-inkscape-font-specification:Bitstream Vera Sans"
       d="M 253.75293,560.45131 C 256.49053,561.03662 258.624,562.25439 260.15332,564.10463 C 261.70147,565.95491 262.47555,568.23941 262.47559,570.95815 C 262.47555,575.13068 261.04066,578.35919 258.1709,580.64369 C 255.30108,582.9282 251.22296,584.07045 245.93652,584.07045 C 244.16177,584.07045 242.33039,583.89109 240.44238,583.53236 C 238.57323,583.19252 236.63801,582.67332 234.63672,581.97475 L 234.63672,576.45229 C 236.22265,577.37742 237.95963,578.07599 239.84766,578.54799 C 241.73567,579.02 243.70865,579.256 245.7666,579.256 C 249.35382,579.256 252.08201,578.54799 253.95117,577.13197 C 255.83917,575.71597 256.78318,573.65802 256.7832,570.95815 C 256.78318,568.46597 255.90525,566.52131 254.14941,565.12416 C 252.41241,563.70816 249.98631,563.00016 246.87109,563.00014 L 241.94336,563.00014 L 241.94336,558.29897 L 247.09766,558.29897 C 249.91079,558.29899 252.06313,557.74203 253.55469,556.62807 C 255.0462,555.49528 255.79197,553.87159 255.79199,551.75697 C 255.79197,549.58578 255.01788,547.92433 253.46973,546.7726 C 251.94041,545.60206 249.74087,545.01678 246.87109,545.01674 C 245.30402,545.01678 243.62368,545.1867 241.83008,545.5265 C 240.03645,545.86639 238.06347,546.39503 235.91113,547.11244 L 235.91113,542.01479 C 238.08235,541.41066 240.11197,540.95754 242,540.65541 C 243.90689,540.35337 245.70051,540.20233 247.38086,540.20229 C 251.72329,540.20233 255.15948,541.19354 257.68945,543.17592 C 260.21937,545.1395 261.48434,547.80161 261.48438,551.16225 C 261.48434,553.50342 260.8141,555.48584 259.47363,557.10951 C 258.13311,558.71435 256.22621,559.82829 253.75293,560.45131"
       id="flowRoot4334" />
    <path
       transform="translate(-75.938943,961.2737)"
       style="font-size:100px;font-style:normal;font-weight:normal;fill:#000000;fill-opacity:1;stroke:none;stroke-width:1px;stroke-linecap:butt;stroke-linejoin:miter;stroke-opacity:1;display:inline;font-family:Bitstream Vera Sans"
       d="M 94.130859,490.73742 L 43.740234,508.65734 L 94.130859,526.4796 L 94.130859,535.36632 L 31.533203,512.66124 L 31.533203,504.55578 L 94.130859,481.8507 L 94.130859,490.73742 M 177.91992,490.73742 L 127.5293,508.65734 L 177.91992,526.4796 L 177.91992,535.36632 L 115.32227,512.66124 L 115.32227,504.55578 L 177.91992,481.8507 L 177.91992,490.73742 M 261.70898,490.73742 L 211.31836,508.65734 L 261.70898,526.4796 L 261.70898,535.36632 L 199.11133,512.66124 L 199.11133,504.55578 L 261.70898,481.8507 L 261.70898,490.73742"
       id="flowRoot4390" />
    <path
       transform="translate(-95.109313,960.9221)"
       style="font-size:58px;font-style:normal;font-variant:normal;font-weight:normal;font-stretch:normal;text-align:start;line-height:100%;writing-mode:lr-tb;text-anchor:start;fill:#000000;fill-opacity:1;stroke:none;stroke-width:1px;stroke-linecap:butt;stroke-linejoin:miter;stroke-opacity:1;display:inline;font-family:Bitstream Vera Sans;-inkscape-font-specification:Bitstream Vera Sans"
       d="M 241.34863,578.43471 L 261.31445,578.43471 L 261.31445,583.24916 L 234.4668,583.24916 L 234.4668,578.43471 C 236.63801,576.18797 239.59276,573.17658 243.33105,569.40053 C 247.0882,565.60562 249.44822,563.16064 250.41113,562.06557 C 252.24249,560.00765 253.5169,558.27067 254.23438,556.85463 C 254.97068,555.41976 255.33884,554.01319 255.33887,552.6349 C 255.33884,550.38819 254.54587,548.55681 252.95996,547.14076 C 251.39288,545.72478 249.34438,545.01678 246.81445,545.01674 C 245.02082,545.01678 243.12336,545.3283 241.12207,545.95131 C 239.13964,546.57439 237.01562,547.5184 234.75,548.78334 L 234.75,543.006 C 237.05338,542.08091 239.20572,541.38234 241.20703,540.91029 C 243.20832,540.43833 245.0397,540.20233 246.70117,540.20229 C 251.08136,540.20233 254.57419,541.29738 257.17969,543.48744 C 259.78513,545.67758 261.08786,548.60401 261.08789,552.26674 C 261.08786,554.00375 260.75746,555.65576 260.09668,557.22279 C 259.45472,558.771 258.27471,560.60237 256.55664,562.71693 C 256.08461,563.26448 254.58363,564.85042 252.05371,567.47475 C 249.52374,570.08023 245.95539,573.73355 241.34863,578.43471 M 278.27832,578.43471 L 298.24414,578.43471 L 298.24414,583.24916 L 271.39648,583.24916 L 271.39648,578.43471 C 273.5677,576.18797 276.52245,573.17658 280.26074,569.40053 C 284.01789,565.60562 286.37791,563.16064 287.34082,562.06557 C 289.17218,560.00765 290.44659,558.27067 291.16406,556.85463 C 291.90037,555.41976 292.26853,554.01319 292.26855,552.6349 C 292.26853,550.38819 291.47556,548.55681 289.88965,547.14076 C 288.32257,545.72478 286.27407,545.01678 283.74414,545.01674 C 281.95051,545.01678 280.05305,545.3283 278.05176,545.95131 C 276.06933,546.57439 273.94531,547.5184 271.67969,548.78334 L 271.67969,543.006 C 273.98307,542.08091 276.13541,541.38234 278.13672,540.91029 C 280.13801,540.43833 281.96939,540.20233 283.63086,540.20229 C 288.01105,540.20233 291.50388,541.29738 294.10938,543.48744 C 296.71481,545.67758 298.01755,548.60401 298.01758,552.26674 C 298.01755,554.00375 297.68714,555.65576 297.02637,557.22279 C 296.38441,558.771 295.2044,560.60237 293.48633,562.71693 C 293.0143,563.26448 291.51332,564.85042 288.9834,567.47475 C 286.45343,570.08023 282.88508,573.73355 278.27832,578.43471"
       id="flowRoot4398" />
    <path
       style="font-size:95px;font-style:normal;font-weight:normal;fill:#000000;fill-opacity:1;stroke:none;stroke-width:1px;stroke-linecap:butt;stroke-linejoin:miter;stroke-opacity:1;display:inline;font-family:Bitstream Vera Sans"
       d="M 91.496078,-1489.1688 L 91.496078,-1479.2885 C 88.341724,-1482.2262 84.970959,-1484.4219 81.383774,-1485.8754 C 77.827411,-1487.3288 74.039166,-1488.0555 70.019028,-1488.0555 C 62.102329,-1488.0555 56.041137,-1485.6279 51.835434,-1480.7728 C 47.629687,-1475.9486 45.526825,-1468.9596 45.52684,-1459.806 C 45.526825,-1450.6833 47.629687,-1443.6944 51.835434,-1438.8392 C 56.041137,-1434.015 62.102329,-1431.6029 70.019028,-1431.6029 C 74.039166,-1431.6029 77.827411,-1432.3296 81.383774,-1433.7831 C 84.970959,-1435.2365 88.341724,-1437.4322 91.496078,-1440.37 L 91.496078,-1430.5824 C 88.218026,-1428.3558 84.739025,-1426.6859 81.059067,-1425.5726 C 77.409931,-1424.4594 73.544375,-1423.9027 69.462387,-1423.9027 C 58.97896,-1423.9027 50.722132,-1427.1034 44.691879,-1433.5048 C 38.661597,-1439.937 35.646464,-1448.7041 35.646469,-1459.806 C 35.646464,-1470.9388 38.661597,-1479.7059 44.691879,-1486.1073 C 50.722132,-1492.5395 58.97896,-1495.7557 69.462387,-1495.7557 C 73.606224,-1495.7557 77.502704,-1495.199 81.15184,-1494.0858 C 84.831799,-1493.0034 88.279875,-1491.3644 91.496078,-1489.1688"
       id="text4446" />
    <path
       style="font-size:68px;font-style:normal;font-weight:normal;fill:#000000;fill-opacity:1;stroke:none;stroke-width:1px;stroke-linecap:butt;stroke-linejoin:miter;stroke-opacity:1;display:inline;font-family:Bitstream Vera Sans"
       d="M 110.14109,-1431.5193 L 116.25047,-1431.5193 L 116.25047,-1393.6677 C 116.25045,-1388.9308 115.3429,-1385.4998 113.52781,-1383.3748 C 111.73483,-1381.2498 108.8351,-1380.1873 104.82859,-1380.1873 L 102.50437,-1380.1873 L 102.50437,-1385.3669 L 104.13132,-1385.3669 C 106.45554,-1385.367 108.03822,-1385.9093 108.87937,-1386.9939 C 109.72051,-1388.0564 110.14108,-1390.281 110.14109,-1393.6677 L 110.14109,-1431.5193 M 110.14109,-1445.9958 L 116.25047,-1445.9958 L 116.25047,-1438.2595 L 110.14109,-1438.2595 L 110.14109,-1445.9958"
       id="text4474" />
    <path
       style="font-size:95px;font-style:normal;font-weight:normal;fill:#000000;fill-opacity:1;stroke:none;stroke-width:1px;stroke-linecap:butt;stroke-linejoin:miter;stroke-opacity:1;display:inline;font-family:Bitstream Vera Sans"
       d="M 89.799423,1738.8312 L 89.799423,1748.7115 C 86.645068,1745.7738 83.274303,1743.5781 79.687119,1742.1246 C 76.130756,1740.6712 72.342511,1739.9445 68.322372,1739.9445 C 60.405674,1739.9445 54.344482,1742.3721 50.138779,1747.2272 C 45.933032,1752.0514 43.83017,1759.0404 43.830185,1768.194 C 43.83017,1777.3167 45.933032,1784.3056 50.138779,1789.1608 C 54.344482,1793.985 60.405674,1796.3971 68.322372,1796.3971 C 72.342511,1796.3971 76.130756,1795.6704 79.687119,1794.2169 C 83.274303,1792.7635 86.645068,1790.5678 89.799423,1787.63 L 89.799423,1797.4176 C 86.521371,1799.6442 83.04237,1801.3141 79.362411,1802.4274 C 75.713276,1803.5406 71.84772,1804.0973 67.765732,1804.0973 C 57.282305,1804.0973 49.025477,1800.8966 42.995224,1794.4952 C 36.964942,1788.063 33.949809,1779.2959 33.949814,1768.194 C 33.949809,1757.0612 36.964942,1748.2941 42.995224,1741.8927 C 49.025477,1735.4605 57.282305,1732.2443 67.765732,1732.2443 C 71.909569,1732.2443 75.806049,1732.801 79.455185,1733.9142 C 83.135143,1734.9966 86.583219,1736.6356 89.799423,1738.8312"
       id="text4462" />
    <path
       style="font-size:62px;font-style:normal;font-weight:normal;fill:#000000;fill-opacity:1;stroke:none;stroke-width:1px;stroke-linecap:butt;stroke-linejoin:miter;stroke-opacity:1;display:inline;font-family:Bitstream Vera Sans"
       d="M 113.92881,1804.2181 L 119.49912,1804.2181 L 119.49912,1838.7299 C 119.49911,1843.0489 118.67164,1846.1771 117.0167,1848.1146 C 115.38193,1850.0521 112.73805,1851.0209 109.08506,1851.0209 L 106.96592,1851.0209 L 106.96592,1846.2982 L 108.44932,1846.2982 C 110.56846,1846.2982 112.01149,1845.8037 112.77842,1844.8148 C 113.54534,1843.8461 113.9288,1841.8177 113.92881,1838.7299 L 113.92881,1804.2181 M 113.92881,1791.0189 L 119.49912,1791.0189 L 119.49912,1798.0726 L 113.92881,1798.0726 L 113.92881,1791.0189 M 153.79893,1799.2533 L 153.79893,1816.1156 L 170.66123,1816.1156 L 170.66123,1821.2621 L 153.79893,1821.2621 L 153.79893,1838.1244 L 148.71299,1838.1244 L 148.71299,1821.2621 L 131.85069,1821.2621 L 131.85069,1816.1156 L 148.71299,1816.1156 L 148.71299,1799.2533 L 153.79893,1799.2533 M 184.92002,1832.9779 L 194.91026,1832.9779 L 194.91026,1798.4965 L 184.04209,1800.6761 L 184.04209,1795.1058 L 194.84971,1792.9261 L 200.96494,1792.9261 L 200.96494,1832.9779 L 210.95518,1832.9779 L 210.95518,1838.1244 L 184.92002,1838.1244 L 184.92002,1832.9779"
       id="text4498" />
    <g
       id="g7342">
      <path
         transform="matrix(0.9639665,0,0,0.9639665,-512.08521,290.5007)"
         d="M 710,943 A 100,100 0 1 1 510,943 A 100,100 0 1 1 710,943 z"
         sodipodi:ry="100"
         sodipodi:rx="100"
         sodipodi:cy="943"
         sodipodi:cx="610"
         id="path4257"
         style="fill:#7fd7ff;fill-opacity:1;stroke:#000000;stroke-width:8;stroke-linecap:round;stroke-linejoin:miter;stroke-miterlimit:4;stroke-dasharray:none;stroke-opacity:1;display:inline"
         sodipodi:type="arc" />
      <path
         id="path4506"
         d="M 75.934359,1265.9178 L 75.934359,1133.1244"
         style="fill:none;fill-rule:evenodd;stroke:#000000;stroke-width:8;stroke-linecap:butt;stroke-linejoin:miter;stroke-miterlimit:4;stroke-dasharray:none;stroke-opacity:1;display:inline" />
      <path
         id="path4508"
         d="M 9.5376587,1199.5211 L 142.33106,1199.5211"
         style="fill:none;fill-rule:evenodd;stroke:#000000;stroke-width:8;stroke-linecap:butt;stroke-linejoin:miter;stroke-miterlimit:4;stroke-dasharray:none;stroke-opacity:1;display:inline" />
    </g>
    <path
       transform="translate(381.52022,-408.7263)"
       style="font-size:100px;font-style:normal;font-weight:normal;fill:#000000;fill-opacity:1;stroke:none;stroke-width:1px;stroke-linecap:butt;stroke-linejoin:miter;stroke-opacity:1;display:inline;font-family:Bitstream Vera Sans"
       d="M 94.130859,490.73742 L 43.740234,508.65734 L 94.130859,526.4796 L 94.130859,535.36632 L 31.533203,512.66124 L 31.533203,504.55578 L 94.130859,481.8507 L 94.130859,490.73742 M 177.91992,490.73742 L 127.5293,508.65734 L 177.91992,526.4796 L 177.91992,535.36632 L 115.32227,512.66124 L 115.32227,504.55578 L 177.91992,481.8507 L 177.91992,490.73742 M 261.70898,490.73742 L 211.31836,508.65734 L 261.70898,526.4796 L 261.70898,535.36632 L 199.11133,512.66124 L 199.11133,504.55578 L 261.70898,481.8507 L 261.70898,490.73742"
       id="flowRoot4342" />
    <path
       transform="translate(389.11842,-407.3442)"
       style="font-size:58px;font-style:normal;font-variant:normal;font-weight:normal;font-stretch:normal;text-align:start;line-height:100%;writing-mode:lr-tb;text-anchor:start;fill:#000000;fill-opacity:1;stroke:none;stroke-width:1px;stroke-linecap:butt;stroke-linejoin:miter;stroke-opacity:1;display:inline;font-family:Bitstream Vera Sans;-inkscape-font-specification:Bitstream Vera Sans"
       d="M 234.97656,540.96693 L 262.16406,540.96693 L 262.16406,543.40248 L 246.81445,583.24916 L 240.83887,583.24916 L 255.28223,545.78139 L 234.97656,545.78139 L 234.97656,540.96693"
       id="flowRoot4350" />
    <path
       style="font-size:95px;font-style:normal;font-weight:normal;fill:#000000;fill-opacity:1;stroke:none;stroke-width:1px;stroke-linecap:butt;stroke-linejoin:miter;stroke-opacity:1;display:inline;font-family:Bitstream Vera Sans"
       d="M 506.47305,-1487.8031 L 506.47305,-1433.9481 L 517.79141,-1433.9481 C 527.34704,-1433.9481 534.33596,-1436.1128 538.75821,-1440.4423 C 543.21128,-1444.7717 545.43784,-1451.606 545.4379,-1460.9452 C 545.43784,-1470.2225 543.21128,-1477.0104 538.75821,-1481.309 C 534.33596,-1485.6383 527.34704,-1487.803 517.79141,-1487.8031 L 506.47305,-1487.8031 M 497.10294,-1495.5033 L 516.35342,-1495.5033 C 529.77461,-1495.5032 539.62404,-1492.7046 545.90176,-1487.1073 C 552.17937,-1481.5408 555.3182,-1472.8201 555.31827,-1460.9452 C 555.3182,-1449.0083 552.16391,-1440.2412 545.85538,-1434.6439 C 539.54673,-1429.0466 529.71276,-1426.2479 516.35342,-1426.2479 L 497.10294,-1426.2479 L 497.10294,-1495.5033"
       id="text4450" />
    <path
       style="font-size:68px;font-style:normal;font-weight:normal;fill:#000000;fill-opacity:1;stroke:none;stroke-width:1px;stroke-linecap:butt;stroke-linejoin:miter;stroke-opacity:1;display:inline;font-family:Bitstream Vera Sans"
       d="M 567.86621,-1431.9191 L 573.97559,-1431.9191 L 573.97559,-1394.0675 C 573.97557,-1389.3305 573.06802,-1385.8995 571.25293,-1383.7745 C 569.45995,-1381.6495 566.56022,-1380.5871 562.55371,-1380.587 L 560.22949,-1380.587 L 560.22949,-1385.7667 L 561.85645,-1385.7667 C 564.18066,-1385.7667 565.76334,-1386.309 566.60449,-1387.3937 C 567.44563,-1388.4562 567.8662,-1390.6808 567.86621,-1394.0675 L 567.86621,-1431.9191 M 567.86621,-1446.3956 L 573.97559,-1446.3956 L 573.97559,-1438.6593 L 567.86621,-1438.6593 L 567.86621,-1446.3956"
       id="text4470" />
    <path
       style="font-size:95px;font-style:normal;font-weight:normal;fill:#000000;fill-opacity:1;stroke:none;stroke-width:1px;stroke-linecap:butt;stroke-linejoin:miter;stroke-opacity:1;display:inline;font-family:Bitstream Vera Sans"
       d="M 506.47305,1741.1969 L 506.47305,1795.0519 L 517.79141,1795.0519 C 527.34704,1795.0519 534.33596,1792.8872 538.75821,1788.5577 C 543.21128,1784.2283 545.43784,1777.394 545.4379,1768.0548 C 545.43784,1758.7775 543.21128,1751.9896 538.75821,1747.691 C 534.33596,1743.3617 527.34704,1741.197 517.79141,1741.1969 L 506.47305,1741.1969 M 497.10294,1733.4967 L 516.35342,1733.4967 C 529.77461,1733.4968 539.62404,1736.2954 545.90176,1741.8927 C 552.17937,1747.4592 555.3182,1756.1799 555.31827,1768.0548 C 555.3182,1779.9917 552.16391,1788.7588 545.85538,1794.3561 C 539.54673,1799.9534 529.71276,1802.7521 516.35342,1802.7521 L 497.10294,1802.7521 L 497.10294,1733.4967"
       id="text4466" />
    <path
       style="font-size:62px;font-style:normal;font-weight:normal;fill:#000000;fill-opacity:1;stroke:none;stroke-width:1px;stroke-linecap:butt;stroke-linejoin:miter;stroke-opacity:1;display:inline;font-family:Bitstream Vera Sans"
       d="M 569.09265,1799.2181 L 574.66296,1799.2181 L 574.66296,1833.7299 C 574.66295,1838.0489 573.83548,1841.1771 572.18054,1843.1146 C 570.54577,1845.0521 567.90189,1846.0209 564.2489,1846.0209 L 562.12976,1846.0209 L 562.12976,1841.2982 L 563.61316,1841.2982 C 565.7323,1841.2982 567.17533,1840.8037 567.94226,1839.8148 C 568.70918,1838.8461 569.09265,1836.8177 569.09265,1833.7299 L 569.09265,1799.2181 M 569.09265,1786.0189 L 574.66296,1786.0189 L 574.66296,1793.0726 L 569.09265,1793.0726 L 569.09265,1786.0189 M 608.96277,1794.2533 L 608.96277,1811.1156 L 625.82507,1811.1156 L 625.82507,1816.2621 L 608.96277,1816.2621 L 608.96277,1833.1244 L 603.87683,1833.1244 L 603.87683,1816.2621 L 587.01453,1816.2621 L 587.01453,1811.1156 L 603.87683,1811.1156 L 603.87683,1794.2533 L 608.96277,1794.2533 M 640.08386,1827.9779 L 650.0741,1827.9779 L 650.0741,1793.4965 L 639.20593,1795.6761 L 639.20593,1790.1058 L 650.01355,1787.9261 L 656.12878,1787.9261 L 656.12878,1827.9779 L 666.11902,1827.9779 L 666.11902,1833.1244 L 640.08386,1833.1244 L 640.08386,1827.9779"
       id="text4502" />
    <g
       id="g7332">
      <path
         transform="matrix(0.9639665,0,0,0.9639665,-51.618006,-1265.896)"
         d="M 710,943 A 100,100 0 1 1 510,943 A 100,100 0 1 1 710,943 z"
         sodipodi:ry="100"
         sodipodi:rx="100"
         sodipodi:cy="943"
         sodipodi:cx="610"
         id="path4524"
         style="fill:#7fd7ff;fill-opacity:1;stroke:#000000;stroke-width:8;stroke-linecap:round;stroke-linejoin:miter;stroke-miterlimit:4;stroke-dasharray:none;stroke-opacity:1;display:inline"
         sodipodi:type="arc" />
      <path
         id="path4526"
         d="M 536.4016,-290.4789 L 536.4016,-423.2723"
         style="fill:none;fill-rule:evenodd;stroke:#000000;stroke-width:8;stroke-linecap:butt;stroke-linejoin:miter;stroke-miterlimit:4;stroke-dasharray:none;stroke-opacity:1;display:inline" />
      <path
         id="path4528"
         d="M 470.0049,-356.8756 L 602.7983,-356.8756"
         style="fill:none;fill-rule:evenodd;stroke:#000000;stroke-width:8;stroke-linecap:butt;stroke-linejoin:miter;stroke-miterlimit:4;stroke-dasharray:none;stroke-opacity:1;display:inline" />
    </g>
    <path
       transform="translate(-541.35673,-408.7263)"
       style="font-size:100px;font-style:normal;font-weight:normal;fill:#000000;fill-opacity:1;stroke:none;stroke-width:1px;stroke-linecap:butt;stroke-linejoin:miter;stroke-opacity:1;display:inline;font-family:Bitstream Vera Sans"
       d="M 94.130859,490.73742 L 43.740234,508.65734 L 94.130859,526.4796 L 94.130859,535.36632 L 31.533203,512.66124 L 31.533203,504.55578 L 94.130859,481.8507 L 94.130859,490.73742 M 177.91992,490.73742 L 127.5293,508.65734 L 177.91992,526.4796 L 177.91992,535.36632 L 115.32227,512.66124 L 115.32227,504.55578 L 177.91992,481.8507 L 177.91992,490.73742 M 261.70898,490.73742 L 211.31836,508.65734 L 261.70898,526.4796 L 261.70898,535.36632 L 199.11133,512.66124 L 199.11133,504.55578 L 261.70898,481.8507 L 261.70898,490.73742"
       id="flowRoot4358" />
    <path
       transform="translate(-533.75855,-407.3442)"
       style="font-size:58px;font-style:normal;font-variant:normal;font-weight:normal;font-stretch:normal;text-align:start;line-height:100%;writing-mode:lr-tb;text-anchor:start;fill:#000000;fill-opacity:1;stroke:none;stroke-width:1px;stroke-linecap:butt;stroke-linejoin:miter;stroke-opacity:1;display:inline;font-family:Bitstream Vera Sans;-inkscape-font-specification:Bitstream Vera Sans"
       d="M 237.41211,578.43471 L 246.75781,578.43471 L 246.75781,546.17787 L 236.59082,548.21693 L 236.59082,543.006 L 246.70117,540.96693 L 252.42188,540.96693 L 252.42188,578.43471 L 261.76758,578.43471 L 261.76758,583.24916 L 237.41211,583.24916 L 237.41211,578.43471"
       id="flowRoot4366" />
    <path
       style="font-size:95px;font-style:normal;font-weight:normal;fill:#000000;fill-opacity:1;stroke:none;stroke-width:1px;stroke-linecap:butt;stroke-linejoin:miter;stroke-opacity:1;display:inline;font-family:Bitstream Vera Sans"
       d="M -414.99066,-1458.9493 L -414.99066,-1433.5758 L -399.96136,-1433.5758 C -394.92071,-1433.5758 -391.19432,-1434.6118 -388.78217,-1436.6837 C -386.33918,-1438.7866 -385.11766,-1441.9872 -385.11761,-1446.2858 C -385.11766,-1450.6152 -386.33918,-1453.8004 -388.78217,-1455.8414 C -391.19432,-1457.9133 -394.92071,-1458.9493 -399.96136,-1458.9493 L -414.99066,-1458.9493 M -414.99066,-1487.4308 L -414.99066,-1466.5568 L -401.12103,-1466.5568 C -396.54425,-1466.5567 -393.14256,-1467.4071 -390.91595,-1469.108 C -388.65851,-1470.8398 -387.52977,-1473.4683 -387.52972,-1476.9938 C -387.52977,-1480.4882 -388.65851,-1483.1013 -390.91595,-1484.8331 C -393.14256,-1486.5648 -396.54425,-1487.4307 -401.12103,-1487.4308 L -414.99066,-1487.4308 M -424.36078,-1495.131 L -400.42523,-1495.131 C -393.28172,-1495.1309 -387.77717,-1493.6465 -383.91156,-1490.6779 C -380.04605,-1487.709 -378.11328,-1483.4879 -378.11322,-1478.0143 C -378.11328,-1473.7776 -379.10286,-1470.4068 -381.08197,-1467.902 C -383.06119,-1465.3971 -385.96809,-1463.8354 -389.80267,-1463.2169 C -385.19497,-1462.2273 -381.6232,-1460.1554 -379.08734,-1457.0011 C -376.52067,-1453.8777 -375.2373,-1449.9658 -375.23724,-1445.2653 C -375.2373,-1439.0803 -377.34016,-1434.3025 -381.54584,-1430.9318 C -385.75161,-1427.561 -391.7355,-1425.8756 -399.4975,-1425.8756 L -424.36078,-1425.8756 L -424.36078,-1495.131"
       id="text4442" />
    <path
       style="font-size:68px;font-style:normal;font-weight:normal;fill:#000000;fill-opacity:1;stroke:none;stroke-width:1px;stroke-linecap:butt;stroke-linejoin:miter;stroke-opacity:1;display:inline;font-family:Bitstream Vera Sans"
       d="M -353.71552,-1432.0553 L -347.60614,-1432.0553 L -347.60614,-1394.2037 C -347.60615,-1389.4668 -348.5137,-1386.0358 -350.3288,-1383.9108 C -352.12177,-1381.7858 -355.02151,-1380.7233 -359.02802,-1380.7233 L -361.35223,-1380.7233 L -361.35223,-1385.903 L -359.72528,-1385.903 C -357.40106,-1385.903 -355.81838,-1386.4453 -354.97723,-1387.5299 C -354.13609,-1388.5924 -353.71552,-1390.817 -353.71552,-1394.2037 L -353.71552,-1432.0553 M -353.71552,-1446.5319 L -347.60614,-1446.5319 L -347.60614,-1438.7955 L -353.71552,-1438.7955 L -353.71552,-1446.5319"
       id="text4478" />
    <path
       style="font-size:95px;font-style:normal;font-weight:normal;fill:#000000;fill-opacity:1;stroke:none;stroke-width:1px;stroke-linecap:butt;stroke-linejoin:miter;stroke-opacity:1;display:inline;font-family:Bitstream Vera Sans"
       d="M -413.46136,1769.6783 L -413.46136,1795.0519 L -398.43207,1795.0519 C -393.39142,1795.0519 -389.66502,1794.0159 -387.25287,1791.944 C -384.80988,1789.8411 -383.58837,1786.6404 -383.58832,1782.3419 C -383.58837,1778.0125 -384.80988,1774.8273 -387.25287,1772.7863 C -389.66502,1770.7143 -393.39142,1769.6784 -398.43207,1769.6783 L -413.46136,1769.6783 M -413.46136,1741.1969 L -413.46136,1762.0709 L -399.59174,1762.0709 C -395.01495,1762.071 -391.61326,1761.2205 -389.38666,1759.5197 C -387.12922,1757.7879 -386.00047,1755.1593 -386.00043,1751.6339 C -386.00047,1748.1395 -387.12922,1745.5264 -389.38666,1743.7946 C -391.61326,1742.0628 -395.01495,1741.197 -399.59174,1741.1969 L -413.46136,1741.1969 M -422.83148,1733.4967 L -398.89594,1733.4967 C -391.75242,1733.4968 -386.24787,1734.9811 -382.38226,1737.9498 C -378.51676,1740.9186 -376.58398,1745.1398 -376.58392,1750.6134 C -376.58398,1754.8501 -377.57356,1758.2209 -379.55267,1760.7257 C -381.53189,1763.2306 -384.43879,1764.7923 -388.27338,1765.4108 C -383.66568,1766.4004 -380.0939,1768.4723 -377.55804,1771.6266 C -374.99137,1774.75 -373.70801,1778.6619 -373.70795,1783.3624 C -373.70801,1789.5473 -375.81087,1794.3252 -380.01654,1797.6959 C -384.22232,1801.0667 -390.2062,1802.7521 -397.9682,1802.7521 L -422.83148,1802.7521 L -422.83148,1733.4967"
       id="text4458" />
    <path
       style="font-size:62px;font-style:normal;font-weight:normal;fill:#000000;fill-opacity:1;stroke:none;stroke-width:1px;stroke-linecap:butt;stroke-linejoin:miter;stroke-opacity:1;display:inline;font-family:Bitstream Vera Sans"
       d="M -350.84174,1804.2181 L -345.27142,1804.2181 L -345.27142,1838.7299 C -345.27143,1843.0489 -346.09891,1846.1771 -347.75385,1848.1146 C -349.38862,1850.0521 -352.0325,1851.0209 -355.68549,1851.0209 L -357.80463,1851.0209 L -357.80463,1846.2982 L -356.32123,1846.2982 C -354.20209,1846.2982 -352.75906,1845.8037 -351.99213,1844.8148 C -351.2252,1843.8461 -350.84174,1841.8177 -350.84174,1838.7299 L -350.84174,1804.2181 M -350.84174,1791.0189 L -345.27142,1791.0189 L -345.27142,1798.0726 L -350.84174,1798.0726 L -350.84174,1791.0189 M -310.97162,1799.2533 L -310.97162,1816.1156 L -294.10931,1816.1156 L -294.10931,1821.2621 L -310.97162,1821.2621 L -310.97162,1838.1244 L -316.05756,1838.1244 L -316.05756,1821.2621 L -332.91986,1821.2621 L -332.91986,1816.1156 L -316.05756,1816.1156 L -316.05756,1799.2533 L -310.97162,1799.2533 M -279.85052,1832.9779 L -269.86029,1832.9779 L -269.86029,1798.4965 L -280.72845,1800.6761 L -280.72845,1795.1058 L -269.92084,1792.9261 L -263.8056,1792.9261 L -263.8056,1832.9779 L -253.81537,1832.9779 L -253.81537,1838.1244 L -279.85052,1838.1244 L -279.85052,1832.9779"
       id="text4494" />
    <g
       id="g7327">
      <path
         transform="matrix(0.9799844,0,0,0.9799844,-982.32334,-1498.9209)"
         d="M 710,943 A 100,100 0 1 1 510,943 A 100,100 0 1 1 710,943 z"
         sodipodi:ry="100"
         sodipodi:rx="100"
         sodipodi:cy="943"
         sodipodi:cx="610"
         id="path4243"
         style="fill:#7fd7ff;fill-opacity:1;stroke:#000000;stroke-width:8;stroke-linecap:round;stroke-linejoin:miter;stroke-miterlimit:4;stroke-dasharray:none;stroke-opacity:1;display:inline"
         sodipodi:type="arc" />
      <path
         id="path4532"
         d="M -382.61127,-506.4789 L -382.61127,-639.27231"
         style="fill:none;fill-rule:evenodd;stroke:#000000;stroke-width:8;stroke-linecap:butt;stroke-linejoin:miter;stroke-miterlimit:4;stroke-dasharray:none;stroke-opacity:1;display:inline" />
      <path
         id="path4534"
         d="M -449.00797,-572.87561 L -316.21457,-572.87561"
         style="fill:none;fill-rule:evenodd;stroke:#000000;stroke-width:8;stroke-linecap:butt;stroke-linejoin:miter;stroke-miterlimit:4;stroke-dasharray:none;stroke-opacity:1;display:inline" />
    </g>
  </g>
</svg>
